%TF.GenerationSoftware,KiCad,Pcbnew,8.0.5*%
%TF.CreationDate,2024-10-17T07:52:50-04:00*%
%TF.ProjectId,Debug Adapter,44656275-6720-4416-9461-707465722e6b,rev?*%
%TF.SameCoordinates,Original*%
%TF.FileFunction,Copper,L2,Bot*%
%TF.FilePolarity,Positive*%
%FSLAX46Y46*%
G04 Gerber Fmt 4.6, Leading zero omitted, Abs format (unit mm)*
G04 Created by KiCad (PCBNEW 8.0.5) date 2024-10-17 07:52:50*
%MOMM*%
%LPD*%
G01*
G04 APERTURE LIST*
G04 Aperture macros list*
%AMRoundRect*
0 Rectangle with rounded corners*
0 $1 Rounding radius*
0 $2 $3 $4 $5 $6 $7 $8 $9 X,Y pos of 4 corners*
0 Add a 4 corners polygon primitive as box body*
4,1,4,$2,$3,$4,$5,$6,$7,$8,$9,$2,$3,0*
0 Add four circle primitives for the rounded corners*
1,1,$1+$1,$2,$3*
1,1,$1+$1,$4,$5*
1,1,$1+$1,$6,$7*
1,1,$1+$1,$8,$9*
0 Add four rect primitives between the rounded corners*
20,1,$1+$1,$2,$3,$4,$5,0*
20,1,$1+$1,$4,$5,$6,$7,0*
20,1,$1+$1,$6,$7,$8,$9,0*
20,1,$1+$1,$8,$9,$2,$3,0*%
G04 Aperture macros list end*
%TA.AperFunction,ComponentPad*%
%ADD10O,1.700000X1.700000*%
%TD*%
%TA.AperFunction,ComponentPad*%
%ADD11R,1.700000X1.700000*%
%TD*%
%TA.AperFunction,SMDPad,CuDef*%
%ADD12RoundRect,0.135000X0.135000X0.185000X-0.135000X0.185000X-0.135000X-0.185000X0.135000X-0.185000X0*%
%TD*%
%TA.AperFunction,SMDPad,CuDef*%
%ADD13O,1.400000X0.600000*%
%TD*%
%TA.AperFunction,ViaPad*%
%ADD14C,0.600000*%
%TD*%
%TA.AperFunction,Conductor*%
%ADD15C,0.200000*%
%TD*%
G04 APERTURE END LIST*
D10*
%TO.P,J2,6,Pin_6*%
%TO.N,CTS*%
X147320000Y-78740000D03*
%TO.P,J2,5,Pin_5*%
X144780000Y-78740000D03*
%TO.P,J2,4,Pin_4*%
%TO.N,RXD*%
X142240000Y-78740000D03*
%TO.P,J2,3,Pin_3*%
%TO.N,TXD*%
X139700000Y-78740000D03*
%TO.P,J2,2,Pin_2*%
%TO.N,GND*%
X137160000Y-78740000D03*
D11*
%TO.P,J2,1,Pin_1*%
%TO.N,+5V*%
X134620000Y-78740000D03*
%TD*%
D10*
%TO.P,J3,6,Pin_6*%
%TO.N,CTS*%
X147320000Y-76200000D03*
%TO.P,J3,5,Pin_5*%
X144780000Y-76200000D03*
%TO.P,J3,4,Pin_4*%
%TO.N,RXD*%
X142240000Y-76200000D03*
%TO.P,J3,3,Pin_3*%
%TO.N,TXD*%
X139700000Y-76200000D03*
%TO.P,J3,2,Pin_2*%
%TO.N,GND*%
X137160000Y-76200000D03*
D11*
%TO.P,J3,1,Pin_1*%
%TO.N,+5V*%
X134620000Y-76200000D03*
%TD*%
D10*
%TO.P,J1,3,Pin_3*%
%TO.N,TXD MCU*%
X138415000Y-88900000D03*
%TO.P,J1,2,Pin_2*%
%TO.N,RXD MCU*%
X140955000Y-88900000D03*
D11*
%TO.P,J1,1,Pin_1*%
%TO.N,GND*%
X143495000Y-88900000D03*
%TD*%
D12*
%TO.P,R1,1*%
%TO.N,+5V*%
X147576000Y-81915000D03*
%TO.P,R1,2*%
%TO.N,Net-(R1-Pad2)*%
X146556000Y-81915000D03*
%TD*%
%TO.P,R4,1*%
%TO.N,TXD*%
X135307800Y-81915000D03*
%TO.P,R4,2*%
%TO.N,+5V*%
X134287800Y-81915000D03*
%TD*%
%TO.P,R2,1*%
%TO.N,+5V*%
X147576000Y-85725000D03*
%TO.P,R2,2*%
%TO.N,Net-(R2-Pad2)*%
X146556000Y-85725000D03*
%TD*%
%TO.P,R3,1*%
%TO.N,RXD MCU*%
X135231600Y-84455000D03*
%TO.P,R3,2*%
%TO.N,+5V*%
X134211600Y-84455000D03*
%TD*%
D13*
%TO.P,U1,1*%
%TO.N,Net-(R1-Pad2)*%
X143770000Y-81915000D03*
%TO.P,U1,2*%
%TO.N,TXD MCU*%
X143770000Y-83185000D03*
%TO.P,U1,3*%
%TO.N,RXD*%
X143770000Y-84455000D03*
%TO.P,U1,4*%
%TO.N,Net-(R2-Pad2)*%
X143770000Y-85725000D03*
%TO.P,U1,5*%
%TO.N,GND*%
X138170000Y-85725000D03*
%TO.P,U1,6*%
%TO.N,RXD MCU*%
X138170000Y-84455000D03*
%TO.P,U1,7*%
%TO.N,GND*%
X138170000Y-83185000D03*
%TO.P,U1,8*%
%TO.N,TXD*%
X138170000Y-81915000D03*
%TD*%
D14*
%TO.N,GND*%
X140893800Y-83185000D03*
%TD*%
D15*
%TO.N,Net-(R2-Pad2)*%
X143770000Y-85725000D02*
X146556000Y-85725000D01*
%TO.N,Net-(R1-Pad2)*%
X143770000Y-81915000D02*
X146556000Y-81915000D01*
%TO.N,+5V*%
X134287800Y-84378800D02*
X134287800Y-81915000D01*
X134211600Y-84455000D02*
X134287800Y-84378800D01*
X147576000Y-85725000D02*
X147576000Y-81915000D01*
X134287800Y-80223900D02*
X134287800Y-81915000D01*
X134620000Y-79891700D02*
X134287800Y-80223900D01*
X134620000Y-78740000D02*
X134620000Y-79315800D01*
X134620000Y-79315800D02*
X134620000Y-79891700D01*
X146193500Y-80532500D02*
X147576000Y-81915000D01*
X144936600Y-80532500D02*
X146193500Y-80532500D01*
X143510000Y-79105900D02*
X144936600Y-80532500D01*
X143510000Y-78321700D02*
X143510000Y-79105900D01*
X142718200Y-77529900D02*
X143510000Y-78321700D01*
X136405900Y-77529900D02*
X142718200Y-77529900D01*
X134620000Y-79315800D02*
X136405900Y-77529900D01*
%TO.N,RXD*%
X142240000Y-81708800D02*
X142240000Y-78740000D01*
X143064100Y-82532900D02*
X142240000Y-81708800D01*
X144430200Y-82532900D02*
X143064100Y-82532900D01*
X144771700Y-82874400D02*
X144430200Y-82532900D01*
X144771700Y-84455000D02*
X144771700Y-82874400D01*
X143770000Y-84455000D02*
X144771700Y-84455000D01*
%TO.N,TXD*%
X135307800Y-81915000D02*
X138170000Y-81915000D01*
X139171700Y-80420000D02*
X139700000Y-79891700D01*
X139171700Y-81915000D02*
X139171700Y-80420000D01*
X138170000Y-81915000D02*
X139171700Y-81915000D01*
X139700000Y-78740000D02*
X139700000Y-79891700D01*
%TO.N,RXD MCU*%
X135231600Y-84455000D02*
X138170000Y-84455000D01*
X139171700Y-85965000D02*
X140955000Y-87748300D01*
X139171700Y-84455000D02*
X139171700Y-85965000D01*
X138170000Y-84455000D02*
X139171700Y-84455000D01*
X140955000Y-88900000D02*
X140955000Y-87748300D01*
%TO.N,TXD MCU*%
X142240000Y-83713300D02*
X142768300Y-83185000D01*
X142240000Y-89250100D02*
X142240000Y-83713300D01*
X141421900Y-90068200D02*
X142240000Y-89250100D01*
X140447000Y-90068200D02*
X141421900Y-90068200D01*
X139566700Y-89187900D02*
X140447000Y-90068200D01*
X139566700Y-88900000D02*
X139566700Y-89187900D01*
X138415000Y-88900000D02*
X139566700Y-88900000D01*
X143770000Y-83185000D02*
X142768300Y-83185000D01*
%TD*%
%TA.AperFunction,Conductor*%
%TO.N,GND*%
G36*
X149302539Y-66059685D02*
G01*
X149348294Y-66112489D01*
X149359500Y-66164000D01*
X149359500Y-90255500D01*
X149339815Y-90322539D01*
X149287011Y-90368294D01*
X149235500Y-90379500D01*
X144710985Y-90379500D01*
X144643946Y-90359815D01*
X144598191Y-90307011D01*
X144588247Y-90237853D01*
X144617272Y-90174297D01*
X144636674Y-90156233D01*
X144702190Y-90107186D01*
X144788350Y-89992093D01*
X144788354Y-89992086D01*
X144838596Y-89857379D01*
X144838598Y-89857372D01*
X144844999Y-89797844D01*
X144845000Y-89797827D01*
X144845000Y-89150000D01*
X143928012Y-89150000D01*
X143960925Y-89092993D01*
X143995000Y-88965826D01*
X143995000Y-88834174D01*
X143960925Y-88707007D01*
X143928012Y-88650000D01*
X144845000Y-88650000D01*
X144845000Y-88002172D01*
X144844999Y-88002155D01*
X144838598Y-87942627D01*
X144838596Y-87942620D01*
X144788354Y-87807913D01*
X144788350Y-87807906D01*
X144702190Y-87692812D01*
X144702187Y-87692809D01*
X144587093Y-87606649D01*
X144587086Y-87606645D01*
X144452379Y-87556403D01*
X144452372Y-87556401D01*
X144392844Y-87550000D01*
X143745000Y-87550000D01*
X143745000Y-88466988D01*
X143687993Y-88434075D01*
X143560826Y-88400000D01*
X143429174Y-88400000D01*
X143302007Y-88434075D01*
X143245000Y-88466988D01*
X143245000Y-87550000D01*
X142964500Y-87550000D01*
X142897461Y-87530315D01*
X142851706Y-87477511D01*
X142840500Y-87426000D01*
X142840500Y-86557708D01*
X142860185Y-86490669D01*
X142912989Y-86444914D01*
X142982147Y-86434970D01*
X143011952Y-86443147D01*
X143136498Y-86494735D01*
X143136503Y-86494737D01*
X143288639Y-86524999D01*
X143291153Y-86525499D01*
X143291156Y-86525500D01*
X143291158Y-86525500D01*
X144248844Y-86525500D01*
X144248845Y-86525499D01*
X144403497Y-86494737D01*
X144528047Y-86443147D01*
X144549172Y-86434397D01*
X144549172Y-86434396D01*
X144549179Y-86434394D01*
X144549185Y-86434390D01*
X144680875Y-86346398D01*
X144747553Y-86325520D01*
X144749766Y-86325500D01*
X145886405Y-86325500D01*
X145953444Y-86345185D01*
X145974081Y-86361814D01*
X146028402Y-86416135D01*
X146166607Y-86497869D01*
X146166614Y-86497871D01*
X146320791Y-86542664D01*
X146320794Y-86542664D01*
X146320796Y-86542665D01*
X146356819Y-86545500D01*
X146755180Y-86545499D01*
X146791204Y-86542665D01*
X146945393Y-86497869D01*
X147002882Y-86463869D01*
X147070602Y-86446688D01*
X147129117Y-86463869D01*
X147186607Y-86497869D01*
X147186610Y-86497869D01*
X147186612Y-86497871D01*
X147340791Y-86542664D01*
X147340794Y-86542664D01*
X147340796Y-86542665D01*
X147376819Y-86545500D01*
X147775180Y-86545499D01*
X147811204Y-86542665D01*
X147965393Y-86497869D01*
X148103598Y-86416135D01*
X148217135Y-86302598D01*
X148298869Y-86164393D01*
X148343665Y-86010204D01*
X148346500Y-85974181D01*
X148346499Y-85475820D01*
X148343665Y-85439796D01*
X148298869Y-85285607D01*
X148217135Y-85147402D01*
X148217133Y-85147400D01*
X148217130Y-85147396D01*
X148212819Y-85143085D01*
X148179334Y-85081762D01*
X148176500Y-85055404D01*
X148176500Y-82584595D01*
X148196185Y-82517556D01*
X148212818Y-82496914D01*
X148217135Y-82492598D01*
X148298869Y-82354393D01*
X148343665Y-82200204D01*
X148346500Y-82164181D01*
X148346499Y-81665820D01*
X148343665Y-81629796D01*
X148298869Y-81475607D01*
X148217135Y-81337402D01*
X148217133Y-81337400D01*
X148217130Y-81337396D01*
X148103603Y-81223869D01*
X148103595Y-81223863D01*
X147965393Y-81142131D01*
X147965388Y-81142129D01*
X147811208Y-81097335D01*
X147811202Y-81097334D01*
X147775188Y-81094500D01*
X147775181Y-81094500D01*
X147656097Y-81094500D01*
X147589058Y-81074815D01*
X147568416Y-81058181D01*
X146729540Y-80219305D01*
X146696055Y-80157982D01*
X146701039Y-80088290D01*
X146742911Y-80032357D01*
X146808375Y-80007940D01*
X146850742Y-80013863D01*
X146851107Y-80012502D01*
X146930583Y-80033797D01*
X147084592Y-80075063D01*
X147272918Y-80091539D01*
X147319999Y-80095659D01*
X147320000Y-80095659D01*
X147320001Y-80095659D01*
X147359234Y-80092226D01*
X147555408Y-80075063D01*
X147783663Y-80013903D01*
X147997830Y-79914035D01*
X148191401Y-79778495D01*
X148358495Y-79611401D01*
X148494035Y-79417830D01*
X148593903Y-79203663D01*
X148655063Y-78975408D01*
X148675659Y-78740000D01*
X148655063Y-78504592D01*
X148593903Y-78276337D01*
X148494035Y-78062171D01*
X148488425Y-78054158D01*
X148358494Y-77868597D01*
X148191402Y-77701506D01*
X148191396Y-77701501D01*
X148005842Y-77571575D01*
X147962217Y-77516998D01*
X147955023Y-77447500D01*
X147986546Y-77385145D01*
X148005842Y-77368425D01*
X148114515Y-77292331D01*
X148191401Y-77238495D01*
X148358495Y-77071401D01*
X148494035Y-76877830D01*
X148593903Y-76663663D01*
X148655063Y-76435408D01*
X148675659Y-76200000D01*
X148655063Y-75964592D01*
X148593903Y-75736337D01*
X148494035Y-75522171D01*
X148488731Y-75514595D01*
X148358494Y-75328597D01*
X148191402Y-75161506D01*
X148191395Y-75161501D01*
X147997834Y-75025967D01*
X147997830Y-75025965D01*
X147997828Y-75025964D01*
X147783663Y-74926097D01*
X147783659Y-74926096D01*
X147783655Y-74926094D01*
X147555413Y-74864938D01*
X147555403Y-74864936D01*
X147320001Y-74844341D01*
X147319999Y-74844341D01*
X147084596Y-74864936D01*
X147084586Y-74864938D01*
X146856344Y-74926094D01*
X146856335Y-74926098D01*
X146642171Y-75025964D01*
X146642169Y-75025965D01*
X146448597Y-75161505D01*
X146281505Y-75328597D01*
X146151575Y-75514158D01*
X146096998Y-75557783D01*
X146027500Y-75564977D01*
X145965145Y-75533454D01*
X145948425Y-75514158D01*
X145818494Y-75328597D01*
X145651402Y-75161506D01*
X145651395Y-75161501D01*
X145457834Y-75025967D01*
X145457830Y-75025965D01*
X145457828Y-75025964D01*
X145243663Y-74926097D01*
X145243659Y-74926096D01*
X145243655Y-74926094D01*
X145015413Y-74864938D01*
X145015403Y-74864936D01*
X144780001Y-74844341D01*
X144779999Y-74844341D01*
X144544596Y-74864936D01*
X144544586Y-74864938D01*
X144316344Y-74926094D01*
X144316335Y-74926098D01*
X144102171Y-75025964D01*
X144102169Y-75025965D01*
X143908597Y-75161505D01*
X143741505Y-75328597D01*
X143611575Y-75514158D01*
X143556998Y-75557783D01*
X143487500Y-75564977D01*
X143425145Y-75533454D01*
X143408425Y-75514158D01*
X143278494Y-75328597D01*
X143111402Y-75161506D01*
X143111395Y-75161501D01*
X142917834Y-75025967D01*
X142917830Y-75025965D01*
X142917828Y-75025964D01*
X142703663Y-74926097D01*
X142703659Y-74926096D01*
X142703655Y-74926094D01*
X142475413Y-74864938D01*
X142475403Y-74864936D01*
X142240001Y-74844341D01*
X142239999Y-74844341D01*
X142004596Y-74864936D01*
X142004586Y-74864938D01*
X141776344Y-74926094D01*
X141776335Y-74926098D01*
X141562171Y-75025964D01*
X141562169Y-75025965D01*
X141368597Y-75161505D01*
X141201505Y-75328597D01*
X141071575Y-75514158D01*
X141016998Y-75557783D01*
X140947500Y-75564977D01*
X140885145Y-75533454D01*
X140868425Y-75514158D01*
X140738494Y-75328597D01*
X140571402Y-75161506D01*
X140571395Y-75161501D01*
X140377834Y-75025967D01*
X140377830Y-75025965D01*
X140377828Y-75025964D01*
X140163663Y-74926097D01*
X140163659Y-74926096D01*
X140163655Y-74926094D01*
X139935413Y-74864938D01*
X139935403Y-74864936D01*
X139700001Y-74844341D01*
X139699999Y-74844341D01*
X139464596Y-74864936D01*
X139464586Y-74864938D01*
X139236344Y-74926094D01*
X139236335Y-74926098D01*
X139022171Y-75025964D01*
X139022169Y-75025965D01*
X138828597Y-75161505D01*
X138661508Y-75328594D01*
X138531269Y-75514595D01*
X138476692Y-75558219D01*
X138407193Y-75565412D01*
X138344839Y-75533890D01*
X138328119Y-75514594D01*
X138198113Y-75328926D01*
X138198108Y-75328920D01*
X138031082Y-75161894D01*
X137837578Y-75026399D01*
X137623492Y-74926570D01*
X137623486Y-74926567D01*
X137410000Y-74869364D01*
X137410000Y-75766988D01*
X137352993Y-75734075D01*
X137225826Y-75700000D01*
X137094174Y-75700000D01*
X136967007Y-75734075D01*
X136910000Y-75766988D01*
X136910000Y-74869364D01*
X136909999Y-74869364D01*
X136696513Y-74926567D01*
X136696507Y-74926570D01*
X136482422Y-75026399D01*
X136482420Y-75026400D01*
X136288926Y-75161886D01*
X136166865Y-75283947D01*
X136105542Y-75317431D01*
X136035850Y-75312447D01*
X135979917Y-75270575D01*
X135963002Y-75239598D01*
X135913797Y-75107671D01*
X135913793Y-75107664D01*
X135827547Y-74992455D01*
X135827544Y-74992452D01*
X135712335Y-74906206D01*
X135712328Y-74906202D01*
X135577482Y-74855908D01*
X135577483Y-74855908D01*
X135517883Y-74849501D01*
X135517881Y-74849500D01*
X135517873Y-74849500D01*
X135517864Y-74849500D01*
X133722129Y-74849500D01*
X133722123Y-74849501D01*
X133662516Y-74855908D01*
X133527671Y-74906202D01*
X133527664Y-74906206D01*
X133412455Y-74992452D01*
X133412452Y-74992455D01*
X133326206Y-75107664D01*
X133326202Y-75107671D01*
X133275908Y-75242517D01*
X133269501Y-75302116D01*
X133269500Y-75302135D01*
X133269500Y-77097870D01*
X133269501Y-77097876D01*
X133275908Y-77157483D01*
X133326202Y-77292328D01*
X133326203Y-77292330D01*
X133403578Y-77395689D01*
X133427995Y-77461153D01*
X133413144Y-77529426D01*
X133403578Y-77544311D01*
X133326203Y-77647669D01*
X133326202Y-77647671D01*
X133275908Y-77782517D01*
X133269501Y-77842116D01*
X133269500Y-77842135D01*
X133269500Y-79637870D01*
X133269501Y-79637876D01*
X133275908Y-79697483D01*
X133326202Y-79832328D01*
X133326206Y-79832335D01*
X133412452Y-79947544D01*
X133412455Y-79947547D01*
X133527664Y-80033793D01*
X133527673Y-80033798D01*
X133606631Y-80063247D01*
X133662565Y-80105117D01*
X133686983Y-80170582D01*
X133687299Y-80179429D01*
X133687299Y-80312946D01*
X133687300Y-80312959D01*
X133687300Y-81245404D01*
X133667615Y-81312443D01*
X133650981Y-81333085D01*
X133646669Y-81337396D01*
X133646663Y-81337404D01*
X133564931Y-81475606D01*
X133564929Y-81475611D01*
X133520135Y-81629791D01*
X133520134Y-81629797D01*
X133517300Y-81665811D01*
X133517300Y-82164169D01*
X133517301Y-82164191D01*
X133520135Y-82200205D01*
X133564929Y-82354388D01*
X133564931Y-82354393D01*
X133646665Y-82492598D01*
X133650978Y-82496911D01*
X133684465Y-82558231D01*
X133687300Y-82584595D01*
X133687300Y-83709204D01*
X133667615Y-83776243D01*
X133650981Y-83796885D01*
X133570469Y-83877396D01*
X133570463Y-83877404D01*
X133488731Y-84015606D01*
X133488729Y-84015611D01*
X133443935Y-84169791D01*
X133443934Y-84169797D01*
X133441100Y-84205811D01*
X133441100Y-84704169D01*
X133441101Y-84704191D01*
X133443935Y-84740205D01*
X133488729Y-84894388D01*
X133488731Y-84894393D01*
X133570463Y-85032595D01*
X133570469Y-85032603D01*
X133683996Y-85146130D01*
X133684000Y-85146133D01*
X133684002Y-85146135D01*
X133822207Y-85227869D01*
X133822214Y-85227871D01*
X133976391Y-85272664D01*
X133976394Y-85272664D01*
X133976396Y-85272665D01*
X134012419Y-85275500D01*
X134410780Y-85275499D01*
X134446804Y-85272665D01*
X134600993Y-85227869D01*
X134658482Y-85193869D01*
X134726202Y-85176688D01*
X134784717Y-85193869D01*
X134842207Y-85227869D01*
X134842210Y-85227869D01*
X134842212Y-85227871D01*
X134996391Y-85272664D01*
X134996394Y-85272664D01*
X134996396Y-85272665D01*
X135032419Y-85275500D01*
X135430780Y-85275499D01*
X135466804Y-85272665D01*
X135620993Y-85227869D01*
X135759198Y-85146135D01*
X135813515Y-85091817D01*
X135874836Y-85058334D01*
X135901195Y-85055500D01*
X137023206Y-85055500D01*
X137090245Y-85075185D01*
X137136000Y-85127989D01*
X137145944Y-85197147D01*
X137126308Y-85248391D01*
X137061052Y-85346051D01*
X137061047Y-85346061D01*
X137007639Y-85474999D01*
X137007639Y-85475000D01*
X138296000Y-85475000D01*
X138363039Y-85494685D01*
X138408794Y-85547489D01*
X138420000Y-85599000D01*
X138420000Y-86525000D01*
X138648794Y-86525000D01*
X138648796Y-86524999D01*
X138778691Y-86499162D01*
X138848282Y-86505389D01*
X138890563Y-86533098D01*
X140063603Y-87706138D01*
X140097088Y-87767461D01*
X140092104Y-87837153D01*
X140063603Y-87881500D01*
X139916508Y-88028594D01*
X139786574Y-88214160D01*
X139731997Y-88257784D01*
X139662498Y-88264977D01*
X139600144Y-88233455D01*
X139583429Y-88214164D01*
X139453495Y-88028599D01*
X139453493Y-88028596D01*
X139286402Y-87861506D01*
X139286395Y-87861501D01*
X139092834Y-87725967D01*
X139092830Y-87725965D01*
X139015499Y-87689905D01*
X138878663Y-87626097D01*
X138878659Y-87626096D01*
X138878655Y-87626094D01*
X138650413Y-87564938D01*
X138650403Y-87564936D01*
X138415001Y-87544341D01*
X138414999Y-87544341D01*
X138179596Y-87564936D01*
X138179586Y-87564938D01*
X137951344Y-87626094D01*
X137951335Y-87626098D01*
X137737171Y-87725964D01*
X137737169Y-87725965D01*
X137543597Y-87861505D01*
X137376505Y-88028597D01*
X137240965Y-88222169D01*
X137240964Y-88222171D01*
X137141098Y-88436335D01*
X137141094Y-88436344D01*
X137079938Y-88664586D01*
X137079936Y-88664596D01*
X137059341Y-88899999D01*
X137059341Y-88900000D01*
X137079936Y-89135403D01*
X137079938Y-89135413D01*
X137141094Y-89363655D01*
X137141096Y-89363659D01*
X137141097Y-89363663D01*
X137196225Y-89481885D01*
X137240965Y-89577830D01*
X137240967Y-89577834D01*
X137347950Y-89730620D01*
X137376505Y-89771401D01*
X137543599Y-89938495D01*
X137620135Y-89992086D01*
X137737165Y-90074032D01*
X137737167Y-90074033D01*
X137737170Y-90074035D01*
X137885319Y-90143118D01*
X137937758Y-90189290D01*
X137956910Y-90256484D01*
X137936694Y-90323365D01*
X137883529Y-90368700D01*
X137832914Y-90379500D01*
X132704500Y-90379500D01*
X132637461Y-90359815D01*
X132591706Y-90307011D01*
X132580500Y-90255500D01*
X132580500Y-85975000D01*
X137007639Y-85975000D01*
X137061047Y-86103938D01*
X137061052Y-86103948D01*
X137148598Y-86234969D01*
X137148601Y-86234973D01*
X137260026Y-86346398D01*
X137260030Y-86346401D01*
X137391051Y-86433947D01*
X137391060Y-86433952D01*
X137536648Y-86494256D01*
X137536656Y-86494258D01*
X137691202Y-86524999D01*
X137691206Y-86525000D01*
X137920000Y-86525000D01*
X137920000Y-85975000D01*
X137007639Y-85975000D01*
X132580500Y-85975000D01*
X132580500Y-66164000D01*
X132600185Y-66096961D01*
X132652989Y-66051206D01*
X132704500Y-66040000D01*
X149235500Y-66040000D01*
X149302539Y-66059685D01*
G37*
%TD.AperFunction*%
%TA.AperFunction,Conductor*%
G36*
X141054855Y-79406546D02*
G01*
X141071575Y-79425842D01*
X141201500Y-79611395D01*
X141201505Y-79611401D01*
X141368599Y-79778495D01*
X141448218Y-79834245D01*
X141562165Y-79914032D01*
X141562167Y-79914033D01*
X141562170Y-79914035D01*
X141567898Y-79916706D01*
X141620339Y-79962872D01*
X141639500Y-80029090D01*
X141639500Y-81622130D01*
X141639499Y-81622148D01*
X141639499Y-81787854D01*
X141639498Y-81787854D01*
X141680423Y-81940585D01*
X141709358Y-81990700D01*
X141709359Y-81990704D01*
X141709360Y-81990704D01*
X141759479Y-82077514D01*
X141759481Y-82077517D01*
X141878349Y-82196385D01*
X141878355Y-82196390D01*
X142305332Y-82623367D01*
X142338817Y-82684690D01*
X142333833Y-82754382D01*
X142305337Y-82798724D01*
X142287784Y-82816279D01*
X142287783Y-82816278D01*
X142287778Y-82816286D01*
X141759481Y-83344582D01*
X141759475Y-83344590D01*
X141717796Y-83416782D01*
X141717796Y-83416784D01*
X141680423Y-83481514D01*
X141680423Y-83481515D01*
X141639499Y-83634243D01*
X141639499Y-83634245D01*
X141639499Y-83802346D01*
X141639500Y-83802359D01*
X141639500Y-87284201D01*
X141619815Y-87351240D01*
X141567011Y-87396995D01*
X141497853Y-87406939D01*
X141434297Y-87377914D01*
X141427819Y-87371882D01*
X141319397Y-87263460D01*
X141319374Y-87263439D01*
X139808519Y-85752584D01*
X139775034Y-85691261D01*
X139772200Y-85664903D01*
X139772200Y-84375945D01*
X139772200Y-84375943D01*
X139731277Y-84223216D01*
X139700435Y-84169796D01*
X139652224Y-84086290D01*
X139652218Y-84086282D01*
X139540417Y-83974481D01*
X139540409Y-83974475D01*
X139403490Y-83895426D01*
X139403485Y-83895423D01*
X139277151Y-83861572D01*
X139217491Y-83825206D01*
X139186962Y-83762359D01*
X139195257Y-83692984D01*
X139206143Y-83672906D01*
X139278947Y-83563947D01*
X139278952Y-83563938D01*
X139332361Y-83435000D01*
X137007639Y-83435000D01*
X137061047Y-83563938D01*
X137061052Y-83563948D01*
X137126308Y-83661609D01*
X137147186Y-83728286D01*
X137128702Y-83795666D01*
X137076723Y-83842357D01*
X137023206Y-83854500D01*
X135901195Y-83854500D01*
X135834156Y-83834815D01*
X135813518Y-83818185D01*
X135759198Y-83763865D01*
X135756651Y-83762359D01*
X135620993Y-83682131D01*
X135620988Y-83682129D01*
X135466808Y-83637335D01*
X135466802Y-83637334D01*
X135430781Y-83634500D01*
X135032430Y-83634500D01*
X135032416Y-83634501D01*
X135022019Y-83635319D01*
X134953643Y-83620949D01*
X134903890Y-83571894D01*
X134888300Y-83511700D01*
X134888300Y-82844274D01*
X134907985Y-82777235D01*
X134960789Y-82731480D01*
X135029947Y-82721536D01*
X135046886Y-82725195D01*
X135072596Y-82732665D01*
X135108619Y-82735500D01*
X135506980Y-82735499D01*
X135543004Y-82732665D01*
X135697193Y-82687869D01*
X135835398Y-82606135D01*
X135889715Y-82551817D01*
X135951036Y-82518334D01*
X135977395Y-82515500D01*
X137023206Y-82515500D01*
X137090245Y-82535185D01*
X137136000Y-82587989D01*
X137145944Y-82657147D01*
X137126308Y-82708391D01*
X137061052Y-82806051D01*
X137061047Y-82806061D01*
X137007639Y-82934999D01*
X137007639Y-82935000D01*
X139332361Y-82935000D01*
X139332360Y-82934999D01*
X139278952Y-82806061D01*
X139278947Y-82806051D01*
X139206143Y-82697093D01*
X139185265Y-82630416D01*
X139203749Y-82563036D01*
X139255728Y-82516345D01*
X139277147Y-82508428D01*
X139403484Y-82474577D01*
X139540416Y-82395520D01*
X139652220Y-82283716D01*
X139731277Y-82146784D01*
X139772200Y-81994057D01*
X139772200Y-80720096D01*
X139791885Y-80653057D01*
X139808515Y-80632419D01*
X140058506Y-80382427D01*
X140058511Y-80382424D01*
X140068714Y-80372220D01*
X140068716Y-80372220D01*
X140180520Y-80260416D01*
X140236310Y-80163784D01*
X140259577Y-80123485D01*
X140291863Y-80002992D01*
X140328227Y-79943335D01*
X140359233Y-79922707D01*
X140361188Y-79921794D01*
X140377830Y-79914035D01*
X140571401Y-79778495D01*
X140738495Y-79611401D01*
X140868425Y-79425842D01*
X140923002Y-79382217D01*
X140992500Y-79375023D01*
X141054855Y-79406546D01*
G37*
%TD.AperFunction*%
%TA.AperFunction,Conductor*%
G36*
X137410000Y-80070633D02*
G01*
X137623483Y-80013433D01*
X137623492Y-80013429D01*
X137837578Y-79913600D01*
X138031082Y-79778105D01*
X138198105Y-79611082D01*
X138328119Y-79425405D01*
X138382696Y-79381781D01*
X138452195Y-79374588D01*
X138514549Y-79406110D01*
X138531269Y-79425405D01*
X138661505Y-79611401D01*
X138747587Y-79697483D01*
X138808603Y-79758499D01*
X138842087Y-79819822D01*
X138837103Y-79889514D01*
X138808610Y-79933853D01*
X138802994Y-79939470D01*
X138802986Y-79939478D01*
X138691181Y-80051282D01*
X138691175Y-80051290D01*
X138649496Y-80123482D01*
X138649496Y-80123484D01*
X138612123Y-80188214D01*
X138612123Y-80188215D01*
X138571199Y-80340943D01*
X138571199Y-80340945D01*
X138571199Y-80509046D01*
X138571200Y-80509059D01*
X138571200Y-80990500D01*
X138551515Y-81057539D01*
X138498711Y-81103294D01*
X138447200Y-81114500D01*
X137691155Y-81114500D01*
X137536510Y-81145261D01*
X137536498Y-81145264D01*
X137390827Y-81205602D01*
X137390814Y-81205609D01*
X137259125Y-81293602D01*
X137192447Y-81314480D01*
X137190234Y-81314500D01*
X135977395Y-81314500D01*
X135910356Y-81294815D01*
X135889718Y-81278185D01*
X135835398Y-81223865D01*
X135697193Y-81142131D01*
X135697188Y-81142129D01*
X135543008Y-81097335D01*
X135543002Y-81097334D01*
X135506981Y-81094500D01*
X135108630Y-81094500D01*
X135108608Y-81094501D01*
X135072596Y-81097335D01*
X135046893Y-81104802D01*
X134977023Y-81104601D01*
X134918354Y-81066658D01*
X134889512Y-81003019D01*
X134888300Y-80985725D01*
X134888300Y-80523997D01*
X134907985Y-80456958D01*
X134924619Y-80436316D01*
X134988715Y-80372220D01*
X135100520Y-80260416D01*
X135162825Y-80152498D01*
X135213391Y-80104284D01*
X135270212Y-80090499D01*
X135517871Y-80090499D01*
X135517872Y-80090499D01*
X135577483Y-80084091D01*
X135712331Y-80033796D01*
X135827546Y-79947546D01*
X135913796Y-79832331D01*
X135963002Y-79700401D01*
X136004872Y-79644468D01*
X136070337Y-79620050D01*
X136138610Y-79634901D01*
X136166865Y-79656053D01*
X136288917Y-79778105D01*
X136482421Y-79913600D01*
X136696507Y-80013429D01*
X136696516Y-80013433D01*
X136910000Y-80070634D01*
X136910000Y-79173012D01*
X136967007Y-79205925D01*
X137094174Y-79240000D01*
X137225826Y-79240000D01*
X137352993Y-79205925D01*
X137410000Y-79173012D01*
X137410000Y-80070633D01*
G37*
%TD.AperFunction*%
%TA.AperFunction,Conductor*%
G36*
X137353039Y-78150085D02*
G01*
X137398794Y-78202889D01*
X137410000Y-78254400D01*
X137410000Y-78306988D01*
X137352993Y-78274075D01*
X137225826Y-78240000D01*
X137094174Y-78240000D01*
X136967007Y-78274075D01*
X136910000Y-78306988D01*
X136910000Y-78254400D01*
X136929685Y-78187361D01*
X136982489Y-78141606D01*
X137034000Y-78130400D01*
X137286000Y-78130400D01*
X137353039Y-78150085D01*
G37*
%TD.AperFunction*%
%TA.AperFunction,Conductor*%
G36*
X137410000Y-76805400D02*
G01*
X137390315Y-76872439D01*
X137337511Y-76918194D01*
X137286000Y-76929400D01*
X137034000Y-76929400D01*
X136966961Y-76909715D01*
X136921206Y-76856911D01*
X136910000Y-76805400D01*
X136910000Y-76633012D01*
X136967007Y-76665925D01*
X137094174Y-76700000D01*
X137225826Y-76700000D01*
X137352993Y-76665925D01*
X137410000Y-76633012D01*
X137410000Y-76805400D01*
G37*
%TD.AperFunction*%
%TD*%
M02*
