%TF.GenerationSoftware,KiCad,Pcbnew,8.0.5*%
%TF.CreationDate,2024-11-06T12:15:13-05:00*%
%TF.ProjectId,Debug Adapter,44656275-6720-4416-9461-707465722e6b,rev?*%
%TF.SameCoordinates,Original*%
%TF.FileFunction,Legend,Top*%
%TF.FilePolarity,Positive*%
%FSLAX46Y46*%
G04 Gerber Fmt 4.6, Leading zero omitted, Abs format (unit mm)*
G04 Created by KiCad (PCBNEW 8.0.5) date 2024-11-06 12:15:13*
%MOMM*%
%LPD*%
G01*
G04 APERTURE LIST*
%ADD10C,0.150000*%
%ADD11C,0.120000*%
G04 APERTURE END LIST*
D10*
X144672969Y-81211428D02*
X144452969Y-80897142D01*
X144295826Y-81211428D02*
X144295826Y-80551428D01*
X144295826Y-80551428D02*
X144547255Y-80551428D01*
X144547255Y-80551428D02*
X144610112Y-80582857D01*
X144610112Y-80582857D02*
X144641541Y-80614285D01*
X144641541Y-80614285D02*
X144672969Y-80677142D01*
X144672969Y-80677142D02*
X144672969Y-80771428D01*
X144672969Y-80771428D02*
X144641541Y-80834285D01*
X144641541Y-80834285D02*
X144610112Y-80865714D01*
X144610112Y-80865714D02*
X144547255Y-80897142D01*
X144547255Y-80897142D02*
X144295826Y-80897142D01*
X144861541Y-80551428D02*
X145238684Y-80551428D01*
X145050112Y-81211428D02*
X145050112Y-80551428D01*
X145427255Y-81180000D02*
X145521541Y-81211428D01*
X145521541Y-81211428D02*
X145678683Y-81211428D01*
X145678683Y-81211428D02*
X145741541Y-81180000D01*
X145741541Y-81180000D02*
X145772969Y-81148571D01*
X145772969Y-81148571D02*
X145804398Y-81085714D01*
X145804398Y-81085714D02*
X145804398Y-81022857D01*
X145804398Y-81022857D02*
X145772969Y-80960000D01*
X145772969Y-80960000D02*
X145741541Y-80928571D01*
X145741541Y-80928571D02*
X145678683Y-80897142D01*
X145678683Y-80897142D02*
X145552969Y-80865714D01*
X145552969Y-80865714D02*
X145490112Y-80834285D01*
X145490112Y-80834285D02*
X145458683Y-80802857D01*
X145458683Y-80802857D02*
X145427255Y-80740000D01*
X145427255Y-80740000D02*
X145427255Y-80677142D01*
X145427255Y-80677142D02*
X145458683Y-80614285D01*
X145458683Y-80614285D02*
X145490112Y-80582857D01*
X145490112Y-80582857D02*
X145552969Y-80551428D01*
X145552969Y-80551428D02*
X145710112Y-80551428D01*
X145710112Y-80551428D02*
X145804398Y-80582857D01*
X141992969Y-81221428D02*
X141772969Y-80907142D01*
X141615826Y-81221428D02*
X141615826Y-80561428D01*
X141615826Y-80561428D02*
X141867255Y-80561428D01*
X141867255Y-80561428D02*
X141930112Y-80592857D01*
X141930112Y-80592857D02*
X141961541Y-80624285D01*
X141961541Y-80624285D02*
X141992969Y-80687142D01*
X141992969Y-80687142D02*
X141992969Y-80781428D01*
X141992969Y-80781428D02*
X141961541Y-80844285D01*
X141961541Y-80844285D02*
X141930112Y-80875714D01*
X141930112Y-80875714D02*
X141867255Y-80907142D01*
X141867255Y-80907142D02*
X141615826Y-80907142D01*
X142212969Y-80561428D02*
X142652969Y-81221428D01*
X142652969Y-80561428D02*
X142212969Y-81221428D01*
X142904397Y-81221428D02*
X142904397Y-80561428D01*
X142904397Y-80561428D02*
X143061540Y-80561428D01*
X143061540Y-80561428D02*
X143155826Y-80592857D01*
X143155826Y-80592857D02*
X143218683Y-80655714D01*
X143218683Y-80655714D02*
X143250112Y-80718571D01*
X143250112Y-80718571D02*
X143281540Y-80844285D01*
X143281540Y-80844285D02*
X143281540Y-80938571D01*
X143281540Y-80938571D02*
X143250112Y-81064285D01*
X143250112Y-81064285D02*
X143218683Y-81127142D01*
X143218683Y-81127142D02*
X143155826Y-81190000D01*
X143155826Y-81190000D02*
X143061540Y-81221428D01*
X143061540Y-81221428D02*
X142904397Y-81221428D01*
X136771541Y-80532857D02*
X136708684Y-80501428D01*
X136708684Y-80501428D02*
X136614398Y-80501428D01*
X136614398Y-80501428D02*
X136520112Y-80532857D01*
X136520112Y-80532857D02*
X136457255Y-80595714D01*
X136457255Y-80595714D02*
X136425826Y-80658571D01*
X136425826Y-80658571D02*
X136394398Y-80784285D01*
X136394398Y-80784285D02*
X136394398Y-80878571D01*
X136394398Y-80878571D02*
X136425826Y-81004285D01*
X136425826Y-81004285D02*
X136457255Y-81067142D01*
X136457255Y-81067142D02*
X136520112Y-81130000D01*
X136520112Y-81130000D02*
X136614398Y-81161428D01*
X136614398Y-81161428D02*
X136677255Y-81161428D01*
X136677255Y-81161428D02*
X136771541Y-81130000D01*
X136771541Y-81130000D02*
X136802969Y-81098571D01*
X136802969Y-81098571D02*
X136802969Y-80878571D01*
X136802969Y-80878571D02*
X136677255Y-80878571D01*
X137085826Y-81161428D02*
X137085826Y-80501428D01*
X137085826Y-80501428D02*
X137462969Y-81161428D01*
X137462969Y-81161428D02*
X137462969Y-80501428D01*
X137777255Y-81161428D02*
X137777255Y-80501428D01*
X137777255Y-80501428D02*
X137934398Y-80501428D01*
X137934398Y-80501428D02*
X138028684Y-80532857D01*
X138028684Y-80532857D02*
X138091541Y-80595714D01*
X138091541Y-80595714D02*
X138122970Y-80658571D01*
X138122970Y-80658571D02*
X138154398Y-80784285D01*
X138154398Y-80784285D02*
X138154398Y-80878571D01*
X138154398Y-80878571D02*
X138122970Y-81004285D01*
X138122970Y-81004285D02*
X138091541Y-81067142D01*
X138091541Y-81067142D02*
X138028684Y-81130000D01*
X138028684Y-81130000D02*
X137934398Y-81161428D01*
X137934398Y-81161428D02*
X137777255Y-81161428D01*
X141094969Y-87033428D02*
X140874969Y-86719142D01*
X140717826Y-87033428D02*
X140717826Y-86373428D01*
X140717826Y-86373428D02*
X140969255Y-86373428D01*
X140969255Y-86373428D02*
X141032112Y-86404857D01*
X141032112Y-86404857D02*
X141063541Y-86436285D01*
X141063541Y-86436285D02*
X141094969Y-86499142D01*
X141094969Y-86499142D02*
X141094969Y-86593428D01*
X141094969Y-86593428D02*
X141063541Y-86656285D01*
X141063541Y-86656285D02*
X141032112Y-86687714D01*
X141032112Y-86687714D02*
X140969255Y-86719142D01*
X140969255Y-86719142D02*
X140717826Y-86719142D01*
X141314969Y-86373428D02*
X141754969Y-87033428D01*
X141754969Y-86373428D02*
X141314969Y-87033428D01*
X139101541Y-80531428D02*
X139478684Y-80531428D01*
X139290112Y-81191428D02*
X139290112Y-80531428D01*
X139635826Y-80531428D02*
X140075826Y-81191428D01*
X140075826Y-80531428D02*
X139635826Y-81191428D01*
X140327254Y-81191428D02*
X140327254Y-80531428D01*
X140327254Y-80531428D02*
X140484397Y-80531428D01*
X140484397Y-80531428D02*
X140578683Y-80562857D01*
X140578683Y-80562857D02*
X140641540Y-80625714D01*
X140641540Y-80625714D02*
X140672969Y-80688571D01*
X140672969Y-80688571D02*
X140704397Y-80814285D01*
X140704397Y-80814285D02*
X140704397Y-80908571D01*
X140704397Y-80908571D02*
X140672969Y-81034285D01*
X140672969Y-81034285D02*
X140641540Y-81097142D01*
X140641540Y-81097142D02*
X140578683Y-81160000D01*
X140578683Y-81160000D02*
X140484397Y-81191428D01*
X140484397Y-81191428D02*
X140327254Y-81191428D01*
X147152969Y-81178571D02*
X147121541Y-81210000D01*
X147121541Y-81210000D02*
X147027255Y-81241428D01*
X147027255Y-81241428D02*
X146964398Y-81241428D01*
X146964398Y-81241428D02*
X146870112Y-81210000D01*
X146870112Y-81210000D02*
X146807255Y-81147142D01*
X146807255Y-81147142D02*
X146775826Y-81084285D01*
X146775826Y-81084285D02*
X146744398Y-80958571D01*
X146744398Y-80958571D02*
X146744398Y-80864285D01*
X146744398Y-80864285D02*
X146775826Y-80738571D01*
X146775826Y-80738571D02*
X146807255Y-80675714D01*
X146807255Y-80675714D02*
X146870112Y-80612857D01*
X146870112Y-80612857D02*
X146964398Y-80581428D01*
X146964398Y-80581428D02*
X147027255Y-80581428D01*
X147027255Y-80581428D02*
X147121541Y-80612857D01*
X147121541Y-80612857D02*
X147152969Y-80644285D01*
X147341541Y-80581428D02*
X147718684Y-80581428D01*
X147530112Y-81241428D02*
X147530112Y-80581428D01*
X147907255Y-81210000D02*
X148001541Y-81241428D01*
X148001541Y-81241428D02*
X148158683Y-81241428D01*
X148158683Y-81241428D02*
X148221541Y-81210000D01*
X148221541Y-81210000D02*
X148252969Y-81178571D01*
X148252969Y-81178571D02*
X148284398Y-81115714D01*
X148284398Y-81115714D02*
X148284398Y-81052857D01*
X148284398Y-81052857D02*
X148252969Y-80990000D01*
X148252969Y-80990000D02*
X148221541Y-80958571D01*
X148221541Y-80958571D02*
X148158683Y-80927142D01*
X148158683Y-80927142D02*
X148032969Y-80895714D01*
X148032969Y-80895714D02*
X147970112Y-80864285D01*
X147970112Y-80864285D02*
X147938683Y-80832857D01*
X147938683Y-80832857D02*
X147907255Y-80770000D01*
X147907255Y-80770000D02*
X147907255Y-80707142D01*
X147907255Y-80707142D02*
X147938683Y-80644285D01*
X147938683Y-80644285D02*
X147970112Y-80612857D01*
X147970112Y-80612857D02*
X148032969Y-80581428D01*
X148032969Y-80581428D02*
X148190112Y-80581428D01*
X148190112Y-80581428D02*
X148284398Y-80612857D01*
X143136541Y-86373428D02*
X143513684Y-86373428D01*
X143325112Y-87033428D02*
X143325112Y-86373428D01*
X143670826Y-86373428D02*
X144110826Y-87033428D01*
X144110826Y-86373428D02*
X143670826Y-87033428D01*
X138051541Y-86404857D02*
X137988684Y-86373428D01*
X137988684Y-86373428D02*
X137894398Y-86373428D01*
X137894398Y-86373428D02*
X137800112Y-86404857D01*
X137800112Y-86404857D02*
X137737255Y-86467714D01*
X137737255Y-86467714D02*
X137705826Y-86530571D01*
X137705826Y-86530571D02*
X137674398Y-86656285D01*
X137674398Y-86656285D02*
X137674398Y-86750571D01*
X137674398Y-86750571D02*
X137705826Y-86876285D01*
X137705826Y-86876285D02*
X137737255Y-86939142D01*
X137737255Y-86939142D02*
X137800112Y-87002000D01*
X137800112Y-87002000D02*
X137894398Y-87033428D01*
X137894398Y-87033428D02*
X137957255Y-87033428D01*
X137957255Y-87033428D02*
X138051541Y-87002000D01*
X138051541Y-87002000D02*
X138082969Y-86970571D01*
X138082969Y-86970571D02*
X138082969Y-86750571D01*
X138082969Y-86750571D02*
X137957255Y-86750571D01*
X138365826Y-87033428D02*
X138365826Y-86373428D01*
X138365826Y-86373428D02*
X138742969Y-87033428D01*
X138742969Y-87033428D02*
X138742969Y-86373428D01*
X139057255Y-87033428D02*
X139057255Y-86373428D01*
X139057255Y-86373428D02*
X139214398Y-86373428D01*
X139214398Y-86373428D02*
X139308684Y-86404857D01*
X139308684Y-86404857D02*
X139371541Y-86467714D01*
X139371541Y-86467714D02*
X139402970Y-86530571D01*
X139402970Y-86530571D02*
X139434398Y-86656285D01*
X139434398Y-86656285D02*
X139434398Y-86750571D01*
X139434398Y-86750571D02*
X139402970Y-86876285D01*
X139402970Y-86876285D02*
X139371541Y-86939142D01*
X139371541Y-86939142D02*
X139308684Y-87002000D01*
X139308684Y-87002000D02*
X139214398Y-87033428D01*
X139214398Y-87033428D02*
X139057255Y-87033428D01*
X133821541Y-80451428D02*
X134041541Y-81111428D01*
X134041541Y-81111428D02*
X134261541Y-80451428D01*
X134858683Y-81048571D02*
X134827255Y-81080000D01*
X134827255Y-81080000D02*
X134732969Y-81111428D01*
X134732969Y-81111428D02*
X134670112Y-81111428D01*
X134670112Y-81111428D02*
X134575826Y-81080000D01*
X134575826Y-81080000D02*
X134512969Y-81017142D01*
X134512969Y-81017142D02*
X134481540Y-80954285D01*
X134481540Y-80954285D02*
X134450112Y-80828571D01*
X134450112Y-80828571D02*
X134450112Y-80734285D01*
X134450112Y-80734285D02*
X134481540Y-80608571D01*
X134481540Y-80608571D02*
X134512969Y-80545714D01*
X134512969Y-80545714D02*
X134575826Y-80482857D01*
X134575826Y-80482857D02*
X134670112Y-80451428D01*
X134670112Y-80451428D02*
X134732969Y-80451428D01*
X134732969Y-80451428D02*
X134827255Y-80482857D01*
X134827255Y-80482857D02*
X134858683Y-80514285D01*
X135518683Y-81048571D02*
X135487255Y-81080000D01*
X135487255Y-81080000D02*
X135392969Y-81111428D01*
X135392969Y-81111428D02*
X135330112Y-81111428D01*
X135330112Y-81111428D02*
X135235826Y-81080000D01*
X135235826Y-81080000D02*
X135172969Y-81017142D01*
X135172969Y-81017142D02*
X135141540Y-80954285D01*
X135141540Y-80954285D02*
X135110112Y-80828571D01*
X135110112Y-80828571D02*
X135110112Y-80734285D01*
X135110112Y-80734285D02*
X135141540Y-80608571D01*
X135141540Y-80608571D02*
X135172969Y-80545714D01*
X135172969Y-80545714D02*
X135235826Y-80482857D01*
X135235826Y-80482857D02*
X135330112Y-80451428D01*
X135330112Y-80451428D02*
X135392969Y-80451428D01*
X135392969Y-80451428D02*
X135487255Y-80482857D01*
X135487255Y-80482857D02*
X135518683Y-80514285D01*
D11*
%TO.C,J3*%
X133290000Y-72100000D02*
X133290000Y-74760000D01*
X133290000Y-74760000D02*
X148650000Y-74760000D01*
X133350000Y-77470000D02*
X133350000Y-76200000D01*
X134240000Y-66100000D02*
X135000000Y-66100000D01*
X134240000Y-72100000D02*
X134240000Y-66100000D01*
X134240000Y-75090000D02*
X134240000Y-74760000D01*
X134300000Y-72100000D02*
X134300000Y-66100000D01*
X134420000Y-72100000D02*
X134420000Y-66100000D01*
X134540000Y-72100000D02*
X134540000Y-66100000D01*
X134620000Y-77470000D02*
X133350000Y-77470000D01*
X134660000Y-72100000D02*
X134660000Y-66100000D01*
X134780000Y-72100000D02*
X134780000Y-66100000D01*
X134900000Y-72100000D02*
X134900000Y-66100000D01*
X135000000Y-66100000D02*
X135000000Y-72100000D01*
X135000000Y-75090000D02*
X135000000Y-74760000D01*
X135890000Y-74760000D02*
X135890000Y-72100000D01*
X136780000Y-66100000D02*
X137540000Y-66100000D01*
X136780000Y-72100000D02*
X136780000Y-66100000D01*
X136780000Y-75157071D02*
X136780000Y-74760000D01*
X137540000Y-66100000D02*
X137540000Y-72100000D01*
X137540000Y-75157071D02*
X137540000Y-74760000D01*
X138430000Y-74760000D02*
X138430000Y-72100000D01*
X139320000Y-66100000D02*
X140080000Y-66100000D01*
X139320000Y-72100000D02*
X139320000Y-66100000D01*
X139320000Y-75157071D02*
X139320000Y-74760000D01*
X140080000Y-66100000D02*
X140080000Y-72100000D01*
X140080000Y-75157071D02*
X140080000Y-74760000D01*
X140970000Y-74760000D02*
X140970000Y-72100000D01*
X141860000Y-66100000D02*
X142620000Y-66100000D01*
X141860000Y-72100000D02*
X141860000Y-66100000D01*
X141860000Y-75157071D02*
X141860000Y-74760000D01*
X142620000Y-66100000D02*
X142620000Y-72100000D01*
X142620000Y-75157071D02*
X142620000Y-74760000D01*
X143510000Y-74760000D02*
X143510000Y-72100000D01*
X144400000Y-66100000D02*
X145160000Y-66100000D01*
X144400000Y-72100000D02*
X144400000Y-66100000D01*
X144400000Y-75157071D02*
X144400000Y-74760000D01*
X145160000Y-66100000D02*
X145160000Y-72100000D01*
X145160000Y-75157071D02*
X145160000Y-74760000D01*
X146050000Y-74760000D02*
X146050000Y-72100000D01*
X146940000Y-66100000D02*
X147700000Y-66100000D01*
X146940000Y-72100000D02*
X146940000Y-66100000D01*
X146940000Y-75157071D02*
X146940000Y-74760000D01*
X147700000Y-66100000D02*
X147700000Y-72100000D01*
X147700000Y-75157071D02*
X147700000Y-74760000D01*
X148650000Y-72100000D02*
X133290000Y-72100000D01*
X148650000Y-74760000D02*
X148650000Y-72100000D01*
%TO.C,J1*%
X137100000Y-89976000D02*
X137100000Y-88646000D01*
X138430000Y-89976000D02*
X137100000Y-89976000D01*
X139700000Y-87316000D02*
X144840000Y-87316000D01*
X139700000Y-89976000D02*
X139700000Y-87316000D01*
X139700000Y-89976000D02*
X144840000Y-89976000D01*
X144840000Y-89976000D02*
X144840000Y-87316000D01*
%TD*%
M02*
