%TF.GenerationSoftware,KiCad,Pcbnew,8.0.5*%
%TF.CreationDate,2024-10-17T07:52:50-04:00*%
%TF.ProjectId,Debug Adapter,44656275-6720-4416-9461-707465722e6b,rev?*%
%TF.SameCoordinates,Original*%
%TF.FileFunction,Copper,L1,Top*%
%TF.FilePolarity,Positive*%
%FSLAX46Y46*%
G04 Gerber Fmt 4.6, Leading zero omitted, Abs format (unit mm)*
G04 Created by KiCad (PCBNEW 8.0.5) date 2024-10-17 07:52:50*
%MOMM*%
%LPD*%
G01*
G04 APERTURE LIST*
%TA.AperFunction,ComponentPad*%
%ADD10O,1.700000X1.700000*%
%TD*%
%TA.AperFunction,ComponentPad*%
%ADD11R,1.700000X1.700000*%
%TD*%
%TA.AperFunction,ViaPad*%
%ADD12C,0.600000*%
%TD*%
%TA.AperFunction,Conductor*%
%ADD13C,0.200000*%
%TD*%
G04 APERTURE END LIST*
D10*
%TO.P,J2,6,Pin_6*%
%TO.N,CTS*%
X147320000Y-78740000D03*
%TO.P,J2,5,Pin_5*%
X144780000Y-78740000D03*
%TO.P,J2,4,Pin_4*%
%TO.N,RXD*%
X142240000Y-78740000D03*
%TO.P,J2,3,Pin_3*%
%TO.N,TXD*%
X139700000Y-78740000D03*
%TO.P,J2,2,Pin_2*%
%TO.N,GND*%
X137160000Y-78740000D03*
D11*
%TO.P,J2,1,Pin_1*%
%TO.N,+5V*%
X134620000Y-78740000D03*
%TD*%
D10*
%TO.P,J3,6,Pin_6*%
%TO.N,CTS*%
X147320000Y-76200000D03*
%TO.P,J3,5,Pin_5*%
X144780000Y-76200000D03*
%TO.P,J3,4,Pin_4*%
%TO.N,RXD*%
X142240000Y-76200000D03*
%TO.P,J3,3,Pin_3*%
%TO.N,TXD*%
X139700000Y-76200000D03*
%TO.P,J3,2,Pin_2*%
%TO.N,GND*%
X137160000Y-76200000D03*
D11*
%TO.P,J3,1,Pin_1*%
%TO.N,+5V*%
X134620000Y-76200000D03*
%TD*%
D10*
%TO.P,J1,3,Pin_3*%
%TO.N,TXD MCU*%
X138415000Y-88900000D03*
%TO.P,J1,2,Pin_2*%
%TO.N,RXD MCU*%
X140955000Y-88900000D03*
D11*
%TO.P,J1,1,Pin_1*%
%TO.N,GND*%
X143495000Y-88900000D03*
%TD*%
D12*
%TO.N,GND*%
X140893800Y-83185000D03*
%TD*%
D13*
%TO.N,+5V*%
X134620000Y-76200000D02*
X134620000Y-78740000D01*
%TO.N,CTS*%
X147320000Y-78740000D02*
X144780000Y-78740000D01*
X147320000Y-76200000D02*
X147320000Y-78740000D01*
X147320000Y-76200000D02*
X144780000Y-76200000D01*
%TO.N,RXD*%
X142240000Y-76200000D02*
X142240000Y-78740000D01*
%TO.N,TXD*%
X139700000Y-76200000D02*
X139700000Y-78740000D01*
%TD*%
%TA.AperFunction,Conductor*%
%TO.N,GND*%
G36*
X137410000Y-78306988D02*
G01*
X137352993Y-78274075D01*
X137225826Y-78240000D01*
X137094174Y-78240000D01*
X136967007Y-78274075D01*
X136910000Y-78306988D01*
X136910000Y-76633012D01*
X136967007Y-76665925D01*
X137094174Y-76700000D01*
X137225826Y-76700000D01*
X137352993Y-76665925D01*
X137410000Y-76633012D01*
X137410000Y-78306988D01*
G37*
%TD.AperFunction*%
%TA.AperFunction,Conductor*%
G36*
X149302539Y-66059685D02*
G01*
X149348294Y-66112489D01*
X149359500Y-66164000D01*
X149359500Y-90255500D01*
X149339815Y-90322539D01*
X149287011Y-90368294D01*
X149235500Y-90379500D01*
X144710985Y-90379500D01*
X144643946Y-90359815D01*
X144598191Y-90307011D01*
X144588247Y-90237853D01*
X144617272Y-90174297D01*
X144636674Y-90156233D01*
X144702190Y-90107186D01*
X144788350Y-89992093D01*
X144788354Y-89992086D01*
X144838596Y-89857379D01*
X144838598Y-89857372D01*
X144844999Y-89797844D01*
X144845000Y-89797827D01*
X144845000Y-89150000D01*
X143928012Y-89150000D01*
X143960925Y-89092993D01*
X143995000Y-88965826D01*
X143995000Y-88834174D01*
X143960925Y-88707007D01*
X143928012Y-88650000D01*
X144845000Y-88650000D01*
X144845000Y-88002172D01*
X144844999Y-88002155D01*
X144838598Y-87942627D01*
X144838596Y-87942620D01*
X144788354Y-87807913D01*
X144788350Y-87807906D01*
X144702190Y-87692812D01*
X144702187Y-87692809D01*
X144587093Y-87606649D01*
X144587086Y-87606645D01*
X144452379Y-87556403D01*
X144452372Y-87556401D01*
X144392844Y-87550000D01*
X143745000Y-87550000D01*
X143745000Y-88466988D01*
X143687993Y-88434075D01*
X143560826Y-88400000D01*
X143429174Y-88400000D01*
X143302007Y-88434075D01*
X143245000Y-88466988D01*
X143245000Y-87550000D01*
X142597155Y-87550000D01*
X142537627Y-87556401D01*
X142537620Y-87556403D01*
X142402913Y-87606645D01*
X142402906Y-87606649D01*
X142287812Y-87692809D01*
X142287809Y-87692812D01*
X142201649Y-87807906D01*
X142201645Y-87807913D01*
X142152578Y-87939470D01*
X142110707Y-87995404D01*
X142045242Y-88019821D01*
X141976969Y-88004969D01*
X141948715Y-87983819D01*
X141904366Y-87939470D01*
X141826401Y-87861505D01*
X141826397Y-87861502D01*
X141826396Y-87861501D01*
X141632834Y-87725967D01*
X141632830Y-87725965D01*
X141561727Y-87692809D01*
X141418663Y-87626097D01*
X141418659Y-87626096D01*
X141418655Y-87626094D01*
X141190413Y-87564938D01*
X141190403Y-87564936D01*
X140955001Y-87544341D01*
X140954999Y-87544341D01*
X140719596Y-87564936D01*
X140719586Y-87564938D01*
X140491344Y-87626094D01*
X140491335Y-87626098D01*
X140277171Y-87725964D01*
X140277169Y-87725965D01*
X140083597Y-87861505D01*
X139916505Y-88028597D01*
X139786575Y-88214158D01*
X139731998Y-88257783D01*
X139662500Y-88264977D01*
X139600145Y-88233454D01*
X139583425Y-88214158D01*
X139453494Y-88028597D01*
X139286402Y-87861506D01*
X139286395Y-87861501D01*
X139092834Y-87725967D01*
X139092830Y-87725965D01*
X139021727Y-87692809D01*
X138878663Y-87626097D01*
X138878659Y-87626096D01*
X138878655Y-87626094D01*
X138650413Y-87564938D01*
X138650403Y-87564936D01*
X138415001Y-87544341D01*
X138414999Y-87544341D01*
X138179596Y-87564936D01*
X138179586Y-87564938D01*
X137951344Y-87626094D01*
X137951335Y-87626098D01*
X137737171Y-87725964D01*
X137737169Y-87725965D01*
X137543597Y-87861505D01*
X137376505Y-88028597D01*
X137240965Y-88222169D01*
X137240964Y-88222171D01*
X137141098Y-88436335D01*
X137141094Y-88436344D01*
X137079938Y-88664586D01*
X137079936Y-88664596D01*
X137059341Y-88899999D01*
X137059341Y-88900000D01*
X137079936Y-89135403D01*
X137079938Y-89135413D01*
X137141094Y-89363655D01*
X137141096Y-89363659D01*
X137141097Y-89363663D01*
X137221004Y-89535023D01*
X137240965Y-89577830D01*
X137240967Y-89577834D01*
X137349281Y-89732521D01*
X137376505Y-89771401D01*
X137543599Y-89938495D01*
X137620135Y-89992086D01*
X137737165Y-90074032D01*
X137737167Y-90074033D01*
X137737170Y-90074035D01*
X137885319Y-90143118D01*
X137937758Y-90189290D01*
X137956910Y-90256484D01*
X137936694Y-90323365D01*
X137883529Y-90368700D01*
X137832914Y-90379500D01*
X132704500Y-90379500D01*
X132637461Y-90359815D01*
X132591706Y-90307011D01*
X132580500Y-90255500D01*
X132580500Y-75302135D01*
X133269500Y-75302135D01*
X133269500Y-77097870D01*
X133269501Y-77097876D01*
X133275908Y-77157483D01*
X133326202Y-77292328D01*
X133326203Y-77292330D01*
X133403578Y-77395689D01*
X133427995Y-77461153D01*
X133413144Y-77529426D01*
X133403578Y-77544311D01*
X133326203Y-77647669D01*
X133326202Y-77647671D01*
X133275908Y-77782517D01*
X133269501Y-77842116D01*
X133269500Y-77842135D01*
X133269500Y-79637870D01*
X133269501Y-79637876D01*
X133275908Y-79697483D01*
X133326202Y-79832328D01*
X133326206Y-79832335D01*
X133412452Y-79947544D01*
X133412455Y-79947547D01*
X133527664Y-80033793D01*
X133527671Y-80033797D01*
X133662517Y-80084091D01*
X133662516Y-80084091D01*
X133669444Y-80084835D01*
X133722127Y-80090500D01*
X135517872Y-80090499D01*
X135577483Y-80084091D01*
X135712331Y-80033796D01*
X135827546Y-79947546D01*
X135913796Y-79832331D01*
X135963002Y-79700401D01*
X136004872Y-79644468D01*
X136070337Y-79620050D01*
X136138610Y-79634901D01*
X136166865Y-79656053D01*
X136288917Y-79778105D01*
X136482421Y-79913600D01*
X136696507Y-80013429D01*
X136696516Y-80013433D01*
X136910000Y-80070634D01*
X136910000Y-79173012D01*
X136967007Y-79205925D01*
X137094174Y-79240000D01*
X137225826Y-79240000D01*
X137352993Y-79205925D01*
X137410000Y-79173012D01*
X137410000Y-80070633D01*
X137623483Y-80013433D01*
X137623492Y-80013429D01*
X137837578Y-79913600D01*
X138031082Y-79778105D01*
X138198105Y-79611082D01*
X138328119Y-79425405D01*
X138382696Y-79381781D01*
X138452195Y-79374588D01*
X138514549Y-79406110D01*
X138531269Y-79425405D01*
X138661505Y-79611401D01*
X138828599Y-79778495D01*
X138925384Y-79846265D01*
X139022165Y-79914032D01*
X139022167Y-79914033D01*
X139022170Y-79914035D01*
X139236337Y-80013903D01*
X139464592Y-80075063D01*
X139641034Y-80090500D01*
X139699999Y-80095659D01*
X139700000Y-80095659D01*
X139700001Y-80095659D01*
X139758966Y-80090500D01*
X139935408Y-80075063D01*
X140163663Y-80013903D01*
X140377830Y-79914035D01*
X140571401Y-79778495D01*
X140738495Y-79611401D01*
X140868425Y-79425842D01*
X140923002Y-79382217D01*
X140992500Y-79375023D01*
X141054855Y-79406546D01*
X141071575Y-79425842D01*
X141201500Y-79611395D01*
X141201505Y-79611401D01*
X141368599Y-79778495D01*
X141465384Y-79846265D01*
X141562165Y-79914032D01*
X141562167Y-79914033D01*
X141562170Y-79914035D01*
X141776337Y-80013903D01*
X142004592Y-80075063D01*
X142181034Y-80090500D01*
X142239999Y-80095659D01*
X142240000Y-80095659D01*
X142240001Y-80095659D01*
X142298966Y-80090500D01*
X142475408Y-80075063D01*
X142703663Y-80013903D01*
X142917830Y-79914035D01*
X143111401Y-79778495D01*
X143278495Y-79611401D01*
X143408425Y-79425842D01*
X143463002Y-79382217D01*
X143532500Y-79375023D01*
X143594855Y-79406546D01*
X143611575Y-79425842D01*
X143741500Y-79611395D01*
X143741505Y-79611401D01*
X143908599Y-79778495D01*
X144005384Y-79846265D01*
X144102165Y-79914032D01*
X144102167Y-79914033D01*
X144102170Y-79914035D01*
X144316337Y-80013903D01*
X144544592Y-80075063D01*
X144721034Y-80090500D01*
X144779999Y-80095659D01*
X144780000Y-80095659D01*
X144780001Y-80095659D01*
X144838966Y-80090500D01*
X145015408Y-80075063D01*
X145243663Y-80013903D01*
X145457830Y-79914035D01*
X145651401Y-79778495D01*
X145818495Y-79611401D01*
X145948425Y-79425842D01*
X146003002Y-79382217D01*
X146072500Y-79375023D01*
X146134855Y-79406546D01*
X146151575Y-79425842D01*
X146281500Y-79611395D01*
X146281505Y-79611401D01*
X146448599Y-79778495D01*
X146545384Y-79846265D01*
X146642165Y-79914032D01*
X146642167Y-79914033D01*
X146642170Y-79914035D01*
X146856337Y-80013903D01*
X147084592Y-80075063D01*
X147261034Y-80090500D01*
X147319999Y-80095659D01*
X147320000Y-80095659D01*
X147320001Y-80095659D01*
X147378966Y-80090500D01*
X147555408Y-80075063D01*
X147783663Y-80013903D01*
X147997830Y-79914035D01*
X148191401Y-79778495D01*
X148358495Y-79611401D01*
X148494035Y-79417830D01*
X148593903Y-79203663D01*
X148655063Y-78975408D01*
X148675659Y-78740000D01*
X148655063Y-78504592D01*
X148593903Y-78276337D01*
X148494035Y-78062171D01*
X148488731Y-78054595D01*
X148358494Y-77868597D01*
X148191402Y-77701506D01*
X148191396Y-77701501D01*
X148005842Y-77571575D01*
X147962217Y-77516998D01*
X147955023Y-77447500D01*
X147986546Y-77385145D01*
X148005842Y-77368425D01*
X148114515Y-77292331D01*
X148191401Y-77238495D01*
X148358495Y-77071401D01*
X148494035Y-76877830D01*
X148593903Y-76663663D01*
X148655063Y-76435408D01*
X148675659Y-76200000D01*
X148655063Y-75964592D01*
X148593903Y-75736337D01*
X148494035Y-75522171D01*
X148488731Y-75514595D01*
X148358494Y-75328597D01*
X148191402Y-75161506D01*
X148191395Y-75161501D01*
X147997834Y-75025967D01*
X147997830Y-75025965D01*
X147997828Y-75025964D01*
X147783663Y-74926097D01*
X147783659Y-74926096D01*
X147783655Y-74926094D01*
X147555413Y-74864938D01*
X147555403Y-74864936D01*
X147320001Y-74844341D01*
X147319999Y-74844341D01*
X147084596Y-74864936D01*
X147084586Y-74864938D01*
X146856344Y-74926094D01*
X146856335Y-74926098D01*
X146642171Y-75025964D01*
X146642169Y-75025965D01*
X146448597Y-75161505D01*
X146281506Y-75328596D01*
X146151575Y-75514159D01*
X146096998Y-75557784D01*
X146027500Y-75564978D01*
X145965145Y-75533455D01*
X145948425Y-75514159D01*
X145818494Y-75328597D01*
X145651402Y-75161506D01*
X145651395Y-75161501D01*
X145457834Y-75025967D01*
X145457830Y-75025965D01*
X145457828Y-75025964D01*
X145243663Y-74926097D01*
X145243659Y-74926096D01*
X145243655Y-74926094D01*
X145015413Y-74864938D01*
X145015403Y-74864936D01*
X144780001Y-74844341D01*
X144779999Y-74844341D01*
X144544596Y-74864936D01*
X144544586Y-74864938D01*
X144316344Y-74926094D01*
X144316335Y-74926098D01*
X144102171Y-75025964D01*
X144102169Y-75025965D01*
X143908597Y-75161505D01*
X143741505Y-75328597D01*
X143611575Y-75514158D01*
X143556998Y-75557783D01*
X143487500Y-75564977D01*
X143425145Y-75533454D01*
X143408425Y-75514158D01*
X143278494Y-75328597D01*
X143111402Y-75161506D01*
X143111395Y-75161501D01*
X142917834Y-75025967D01*
X142917830Y-75025965D01*
X142917828Y-75025964D01*
X142703663Y-74926097D01*
X142703659Y-74926096D01*
X142703655Y-74926094D01*
X142475413Y-74864938D01*
X142475403Y-74864936D01*
X142240001Y-74844341D01*
X142239999Y-74844341D01*
X142004596Y-74864936D01*
X142004586Y-74864938D01*
X141776344Y-74926094D01*
X141776335Y-74926098D01*
X141562171Y-75025964D01*
X141562169Y-75025965D01*
X141368597Y-75161505D01*
X141201505Y-75328597D01*
X141071575Y-75514158D01*
X141016998Y-75557783D01*
X140947500Y-75564977D01*
X140885145Y-75533454D01*
X140868425Y-75514158D01*
X140738494Y-75328597D01*
X140571402Y-75161506D01*
X140571395Y-75161501D01*
X140377834Y-75025967D01*
X140377830Y-75025965D01*
X140377828Y-75025964D01*
X140163663Y-74926097D01*
X140163659Y-74926096D01*
X140163655Y-74926094D01*
X139935413Y-74864938D01*
X139935403Y-74864936D01*
X139700001Y-74844341D01*
X139699999Y-74844341D01*
X139464596Y-74864936D01*
X139464586Y-74864938D01*
X139236344Y-74926094D01*
X139236335Y-74926098D01*
X139022171Y-75025964D01*
X139022169Y-75025965D01*
X138828597Y-75161505D01*
X138661508Y-75328594D01*
X138531269Y-75514595D01*
X138476692Y-75558219D01*
X138407193Y-75565412D01*
X138344839Y-75533890D01*
X138328119Y-75514594D01*
X138198113Y-75328926D01*
X138198108Y-75328920D01*
X138031082Y-75161894D01*
X137837578Y-75026399D01*
X137623492Y-74926570D01*
X137623486Y-74926567D01*
X137410000Y-74869364D01*
X137410000Y-75766988D01*
X137352993Y-75734075D01*
X137225826Y-75700000D01*
X137094174Y-75700000D01*
X136967007Y-75734075D01*
X136910000Y-75766988D01*
X136910000Y-74869364D01*
X136909999Y-74869364D01*
X136696513Y-74926567D01*
X136696507Y-74926570D01*
X136482422Y-75026399D01*
X136482420Y-75026400D01*
X136288926Y-75161886D01*
X136166865Y-75283947D01*
X136105542Y-75317431D01*
X136035850Y-75312447D01*
X135979917Y-75270575D01*
X135963002Y-75239598D01*
X135913797Y-75107671D01*
X135913793Y-75107664D01*
X135827547Y-74992455D01*
X135827544Y-74992452D01*
X135712335Y-74906206D01*
X135712328Y-74906202D01*
X135577482Y-74855908D01*
X135577483Y-74855908D01*
X135517883Y-74849501D01*
X135517881Y-74849500D01*
X135517873Y-74849500D01*
X135517864Y-74849500D01*
X133722129Y-74849500D01*
X133722123Y-74849501D01*
X133662516Y-74855908D01*
X133527671Y-74906202D01*
X133527664Y-74906206D01*
X133412455Y-74992452D01*
X133412452Y-74992455D01*
X133326206Y-75107664D01*
X133326202Y-75107671D01*
X133275908Y-75242517D01*
X133269501Y-75302116D01*
X133269500Y-75302135D01*
X132580500Y-75302135D01*
X132580500Y-66164000D01*
X132600185Y-66096961D01*
X132652989Y-66051206D01*
X132704500Y-66040000D01*
X149235500Y-66040000D01*
X149302539Y-66059685D01*
G37*
%TD.AperFunction*%
%TD*%
M02*
