%TF.GenerationSoftware,KiCad,Pcbnew,8.0.5*%
%TF.CreationDate,2024-10-17T07:52:50-04:00*%
%TF.ProjectId,Debug Adapter,44656275-6720-4416-9461-707465722e6b,rev?*%
%TF.SameCoordinates,Original*%
%TF.FileFunction,Legend,Bot*%
%TF.FilePolarity,Positive*%
%FSLAX46Y46*%
G04 Gerber Fmt 4.6, Leading zero omitted, Abs format (unit mm)*
G04 Created by KiCad (PCBNEW 8.0.5) date 2024-10-17 07:52:50*
%MOMM*%
%LPD*%
G01*
G04 APERTURE LIST*
%ADD10C,0.150000*%
%ADD11C,0.120000*%
%ADD12C,0.200000*%
G04 APERTURE END LIST*
D10*
X147207266Y-83589019D02*
X147540599Y-83112828D01*
X147778694Y-83589019D02*
X147778694Y-82589019D01*
X147778694Y-82589019D02*
X147397742Y-82589019D01*
X147397742Y-82589019D02*
X147302504Y-82636638D01*
X147302504Y-82636638D02*
X147254885Y-82684257D01*
X147254885Y-82684257D02*
X147207266Y-82779495D01*
X147207266Y-82779495D02*
X147207266Y-82922352D01*
X147207266Y-82922352D02*
X147254885Y-83017590D01*
X147254885Y-83017590D02*
X147302504Y-83065209D01*
X147302504Y-83065209D02*
X147397742Y-83112828D01*
X147397742Y-83112828D02*
X147778694Y-83112828D01*
X146254885Y-83589019D02*
X146826313Y-83589019D01*
X146540599Y-83589019D02*
X146540599Y-82589019D01*
X146540599Y-82589019D02*
X146635837Y-82731876D01*
X146635837Y-82731876D02*
X146731075Y-82827114D01*
X146731075Y-82827114D02*
X146826313Y-82874733D01*
X134786666Y-83614419D02*
X135119999Y-83138228D01*
X135358094Y-83614419D02*
X135358094Y-82614419D01*
X135358094Y-82614419D02*
X134977142Y-82614419D01*
X134977142Y-82614419D02*
X134881904Y-82662038D01*
X134881904Y-82662038D02*
X134834285Y-82709657D01*
X134834285Y-82709657D02*
X134786666Y-82804895D01*
X134786666Y-82804895D02*
X134786666Y-82947752D01*
X134786666Y-82947752D02*
X134834285Y-83042990D01*
X134834285Y-83042990D02*
X134881904Y-83090609D01*
X134881904Y-83090609D02*
X134977142Y-83138228D01*
X134977142Y-83138228D02*
X135358094Y-83138228D01*
X133929523Y-82947752D02*
X133929523Y-83614419D01*
X134167618Y-82566800D02*
X134405713Y-83281085D01*
X134405713Y-83281085D02*
X133786666Y-83281085D01*
X147232666Y-85009819D02*
X147565999Y-84533628D01*
X147804094Y-85009819D02*
X147804094Y-84009819D01*
X147804094Y-84009819D02*
X147423142Y-84009819D01*
X147423142Y-84009819D02*
X147327904Y-84057438D01*
X147327904Y-84057438D02*
X147280285Y-84105057D01*
X147280285Y-84105057D02*
X147232666Y-84200295D01*
X147232666Y-84200295D02*
X147232666Y-84343152D01*
X147232666Y-84343152D02*
X147280285Y-84438390D01*
X147280285Y-84438390D02*
X147327904Y-84486009D01*
X147327904Y-84486009D02*
X147423142Y-84533628D01*
X147423142Y-84533628D02*
X147804094Y-84533628D01*
X146851713Y-84105057D02*
X146804094Y-84057438D01*
X146804094Y-84057438D02*
X146708856Y-84009819D01*
X146708856Y-84009819D02*
X146470761Y-84009819D01*
X146470761Y-84009819D02*
X146375523Y-84057438D01*
X146375523Y-84057438D02*
X146327904Y-84105057D01*
X146327904Y-84105057D02*
X146280285Y-84200295D01*
X146280285Y-84200295D02*
X146280285Y-84295533D01*
X146280285Y-84295533D02*
X146327904Y-84438390D01*
X146327904Y-84438390D02*
X146899332Y-85009819D01*
X146899332Y-85009819D02*
X146280285Y-85009819D01*
X134786666Y-86129019D02*
X135119999Y-85652828D01*
X135358094Y-86129019D02*
X135358094Y-85129019D01*
X135358094Y-85129019D02*
X134977142Y-85129019D01*
X134977142Y-85129019D02*
X134881904Y-85176638D01*
X134881904Y-85176638D02*
X134834285Y-85224257D01*
X134834285Y-85224257D02*
X134786666Y-85319495D01*
X134786666Y-85319495D02*
X134786666Y-85462352D01*
X134786666Y-85462352D02*
X134834285Y-85557590D01*
X134834285Y-85557590D02*
X134881904Y-85605209D01*
X134881904Y-85605209D02*
X134977142Y-85652828D01*
X134977142Y-85652828D02*
X135358094Y-85652828D01*
X134453332Y-85129019D02*
X133834285Y-85129019D01*
X133834285Y-85129019D02*
X134167618Y-85509971D01*
X134167618Y-85509971D02*
X134024761Y-85509971D01*
X134024761Y-85509971D02*
X133929523Y-85557590D01*
X133929523Y-85557590D02*
X133881904Y-85605209D01*
X133881904Y-85605209D02*
X133834285Y-85700447D01*
X133834285Y-85700447D02*
X133834285Y-85938542D01*
X133834285Y-85938542D02*
X133881904Y-86033780D01*
X133881904Y-86033780D02*
X133929523Y-86081400D01*
X133929523Y-86081400D02*
X134024761Y-86129019D01*
X134024761Y-86129019D02*
X134310475Y-86129019D01*
X134310475Y-86129019D02*
X134405713Y-86081400D01*
X134405713Y-86081400D02*
X134453332Y-86033780D01*
X141478228Y-86830591D02*
X141478228Y-87640459D01*
X141478228Y-87640459D02*
X141430589Y-87735737D01*
X141430589Y-87735737D02*
X141382950Y-87783377D01*
X141382950Y-87783377D02*
X141287671Y-87831016D01*
X141287671Y-87831016D02*
X141097114Y-87831016D01*
X141097114Y-87831016D02*
X141001835Y-87783377D01*
X141001835Y-87783377D02*
X140954196Y-87735737D01*
X140954196Y-87735737D02*
X140906557Y-87640459D01*
X140906557Y-87640459D02*
X140906557Y-86830591D01*
X139906132Y-87831016D02*
X140477803Y-87831016D01*
X140191968Y-87831016D02*
X140191968Y-86830591D01*
X140191968Y-86830591D02*
X140287246Y-86973509D01*
X140287246Y-86973509D02*
X140382525Y-87068787D01*
X140382525Y-87068787D02*
X140477803Y-87116427D01*
D11*
%TO.C,J2*%
X148650000Y-80070000D02*
X135890000Y-80070000D01*
X148650000Y-80070000D02*
X148650000Y-77410000D01*
X135890000Y-80070000D02*
X135890000Y-77410000D01*
X148650000Y-77410000D02*
X135890000Y-77410000D01*
X133290000Y-77410000D02*
X134620000Y-77410000D01*
X133290000Y-78740000D02*
X133290000Y-77410000D01*
%TO.C,R1*%
X146912359Y-81535000D02*
X147219641Y-81535000D01*
X146912359Y-82295000D02*
X147219641Y-82295000D01*
%TO.C,R4*%
X134644159Y-81535000D02*
X134951441Y-81535000D01*
X134644159Y-82295000D02*
X134951441Y-82295000D01*
%TO.C,R2*%
X146912359Y-85345000D02*
X147219641Y-85345000D01*
X146912359Y-86105000D02*
X147219641Y-86105000D01*
%TO.C,R3*%
X134567959Y-84075000D02*
X134875241Y-84075000D01*
X134567959Y-84835000D02*
X134875241Y-84835000D01*
D12*
%TO.C,U1*%
X139195000Y-81370000D02*
X142745000Y-81370000D01*
X139195000Y-86270000D02*
X139195000Y-81370000D01*
X142745000Y-81370000D02*
X142745000Y-86270000D01*
X142745000Y-86270000D02*
X139195000Y-86270000D01*
X142270000Y-82020000D02*
G75*
G02*
X141870000Y-82020000I-200000J0D01*
G01*
X141870000Y-82020000D02*
G75*
G02*
X142270000Y-82020000I200000J0D01*
G01*
X143850000Y-81220000D02*
G75*
G02*
X143690000Y-81220000I-80000J0D01*
G01*
X143690000Y-81220000D02*
G75*
G02*
X143850000Y-81220000I80000J0D01*
G01*
%TD*%
M02*
