%TF.GenerationSoftware,KiCad,Pcbnew,8.0.5*%
%TF.CreationDate,2024-11-06T12:15:13-05:00*%
%TF.ProjectId,Debug Adapter,44656275-6720-4416-9461-707465722e6b,rev?*%
%TF.SameCoordinates,Original*%
%TF.FileFunction,Copper,L2,Bot*%
%TF.FilePolarity,Positive*%
%FSLAX46Y46*%
G04 Gerber Fmt 4.6, Leading zero omitted, Abs format (unit mm)*
G04 Created by KiCad (PCBNEW 8.0.5) date 2024-11-06 12:15:13*
%MOMM*%
%LPD*%
G01*
G04 APERTURE LIST*
G04 Aperture macros list*
%AMRoundRect*
0 Rectangle with rounded corners*
0 $1 Rounding radius*
0 $2 $3 $4 $5 $6 $7 $8 $9 X,Y pos of 4 corners*
0 Add a 4 corners polygon primitive as box body*
4,1,4,$2,$3,$4,$5,$6,$7,$8,$9,$2,$3,0*
0 Add four circle primitives for the rounded corners*
1,1,$1+$1,$2,$3*
1,1,$1+$1,$4,$5*
1,1,$1+$1,$6,$7*
1,1,$1+$1,$8,$9*
0 Add four rect primitives between the rounded corners*
20,1,$1+$1,$2,$3,$4,$5,0*
20,1,$1+$1,$4,$5,$6,$7,0*
20,1,$1+$1,$6,$7,$8,$9,0*
20,1,$1+$1,$8,$9,$2,$3,0*%
G04 Aperture macros list end*
%TA.AperFunction,ComponentPad*%
%ADD10R,1.700000X1.700000*%
%TD*%
%TA.AperFunction,ComponentPad*%
%ADD11O,1.700000X1.700000*%
%TD*%
%TA.AperFunction,SMDPad,CuDef*%
%ADD12RoundRect,0.135000X0.135000X0.185000X-0.135000X0.185000X-0.135000X-0.185000X0.135000X-0.185000X0*%
%TD*%
%TA.AperFunction,SMDPad,CuDef*%
%ADD13O,1.400000X0.600000*%
%TD*%
%TA.AperFunction,ViaPad*%
%ADD14C,0.600000*%
%TD*%
%TA.AperFunction,Conductor*%
%ADD15C,0.200000*%
%TD*%
G04 APERTURE END LIST*
D10*
%TO.P,J3,1,Pin_1*%
%TO.N,+5V*%
X134620000Y-76200000D03*
D11*
%TO.P,J3,2,Pin_2*%
%TO.N,GND*%
X137160000Y-76200000D03*
%TO.P,J3,3,Pin_3*%
%TO.N,TXD*%
X139700000Y-76200000D03*
%TO.P,J3,4,Pin_4*%
%TO.N,RXD*%
X142240000Y-76200000D03*
%TO.P,J3,5,Pin_5*%
%TO.N,CTS*%
X144780000Y-76200000D03*
%TO.P,J3,6,Pin_6*%
X147320000Y-76200000D03*
%TD*%
D10*
%TO.P,J1,1,Pin_1*%
%TO.N,GND*%
X138430000Y-88646000D03*
D11*
%TO.P,J1,2,Pin_2*%
%TO.N,RXD Reflow*%
X140970000Y-88646000D03*
%TO.P,J1,3,Pin_3*%
%TO.N,TXD Reflow*%
X143510000Y-88646000D03*
%TD*%
D12*
%TO.P,R1,1*%
%TO.N,+5V*%
X147576000Y-81915000D03*
%TO.P,R1,2*%
%TO.N,Net-(R1-Pad2)*%
X146556000Y-81915000D03*
%TD*%
D10*
%TO.P,J2,1,Pin_1*%
%TO.N,+5V*%
X134620000Y-78740000D03*
D11*
%TO.P,J2,2,Pin_2*%
%TO.N,GND*%
X137160000Y-78740000D03*
%TO.P,J2,3,Pin_3*%
%TO.N,TXD*%
X139700000Y-78740000D03*
%TO.P,J2,4,Pin_4*%
%TO.N,RXD*%
X142240000Y-78740000D03*
%TO.P,J2,5,Pin_5*%
%TO.N,CTS*%
X144780000Y-78740000D03*
%TO.P,J2,6,Pin_6*%
X147320000Y-78740000D03*
%TD*%
D12*
%TO.P,R4,1*%
%TO.N,RXD Reflow*%
X135307800Y-81915000D03*
%TO.P,R4,2*%
%TO.N,+5V*%
X134287800Y-81915000D03*
%TD*%
%TO.P,R2,1*%
%TO.N,+5V*%
X147576000Y-85725000D03*
%TO.P,R2,2*%
%TO.N,Net-(R2-Pad2)*%
X146556000Y-85725000D03*
%TD*%
%TO.P,R3,1*%
%TO.N,RXD*%
X135231600Y-84455000D03*
%TO.P,R3,2*%
%TO.N,+5V*%
X134211600Y-84455000D03*
%TD*%
D13*
%TO.P,U1,1*%
%TO.N,Net-(R1-Pad2)*%
X143770000Y-81915000D03*
%TO.P,U1,2*%
%TO.N,TXD*%
X143770000Y-83185000D03*
%TO.P,U1,3*%
%TO.N,Net-(R2-Pad2)*%
X143770000Y-84455000D03*
%TO.P,U1,4*%
%TO.N,TXD Reflow*%
X143770000Y-85725000D03*
%TO.P,U1,5*%
%TO.N,GND*%
X138170000Y-85725000D03*
%TO.P,U1,6*%
%TO.N,RXD*%
X138170000Y-84455000D03*
%TO.P,U1,7*%
%TO.N,GND*%
X138170000Y-83185000D03*
%TO.P,U1,8*%
%TO.N,RXD Reflow*%
X138170000Y-81915000D03*
%TD*%
D14*
%TO.N,GND*%
X136321800Y-83185000D03*
%TD*%
D15*
%TO.N,Net-(R2-Pad2)*%
X145286000Y-84455000D02*
X146556000Y-85725000D01*
X143770000Y-84455000D02*
X145286000Y-84455000D01*
%TO.N,Net-(R1-Pad2)*%
X143770000Y-81915000D02*
X146556000Y-81915000D01*
%TO.N,+5V*%
X134287800Y-84378800D02*
X134287800Y-81915000D01*
X134211600Y-84455000D02*
X134287800Y-84378800D01*
X134620000Y-78740000D02*
X134620000Y-79891700D01*
X134620000Y-80236600D02*
X134620000Y-79891700D01*
X134287800Y-80568800D02*
X134620000Y-80236600D01*
X134287800Y-81915000D02*
X134287800Y-80568800D01*
X147576000Y-85725000D02*
X145671000Y-83820000D01*
X142803300Y-83820000D02*
X145671000Y-83820000D01*
X139219900Y-80236600D02*
X142803300Y-83820000D01*
X134620000Y-80236600D02*
X139219900Y-80236600D01*
X145671000Y-83820000D02*
X147576000Y-81915000D01*
%TO.N,RXD*%
X142240000Y-78740000D02*
X141088300Y-78740000D01*
X138170000Y-84455000D02*
X135231600Y-84455000D01*
X142240000Y-76200000D02*
X142240000Y-77351700D01*
X142208100Y-77351700D02*
X141088300Y-78471500D01*
X142240000Y-77351700D02*
X142208100Y-77351700D01*
X140197600Y-77580800D02*
X141088300Y-78471500D01*
X133579200Y-77580800D02*
X140197600Y-77580800D01*
X133468300Y-77691700D02*
X133579200Y-77580800D01*
X133468300Y-84675700D02*
X133468300Y-77691700D01*
X133895800Y-85103200D02*
X133468300Y-84675700D01*
X134583400Y-85103200D02*
X133895800Y-85103200D01*
X135231600Y-84455000D02*
X134583400Y-85103200D01*
X141088300Y-78471500D02*
X141088300Y-78740000D01*
%TO.N,TXD*%
X142768300Y-82960000D02*
X139700000Y-79891700D01*
X142768300Y-83185000D02*
X142768300Y-82960000D01*
X143770000Y-83185000D02*
X142768300Y-83185000D01*
X139700000Y-78740000D02*
X139700000Y-79891700D01*
%TO.N,RXD Reflow*%
X135307800Y-81915000D02*
X138170000Y-81915000D01*
X139171700Y-85696000D02*
X140970000Y-87494300D01*
X139171700Y-81915000D02*
X139171700Y-85696000D01*
X138170000Y-81915000D02*
X139171700Y-81915000D01*
X140970000Y-88646000D02*
X140970000Y-87494300D01*
%TO.N,TXD Reflow*%
X142768300Y-86752600D02*
X143510000Y-87494300D01*
X142768300Y-85725000D02*
X142768300Y-86752600D01*
X143770000Y-85725000D02*
X142768300Y-85725000D01*
X143510000Y-88646000D02*
X143510000Y-87494300D01*
%TD*%
%TA.AperFunction,Conductor*%
%TO.N,GND*%
G36*
X137090245Y-82535185D02*
G01*
X137136000Y-82587989D01*
X137145944Y-82657147D01*
X137126308Y-82708391D01*
X137061052Y-82806051D01*
X137061047Y-82806061D01*
X137007639Y-82934999D01*
X137007639Y-82935000D01*
X138296000Y-82935000D01*
X138363039Y-82954685D01*
X138408794Y-83007489D01*
X138420000Y-83059000D01*
X138420000Y-83311000D01*
X138400315Y-83378039D01*
X138347511Y-83423794D01*
X138296000Y-83435000D01*
X137007639Y-83435000D01*
X137061047Y-83563938D01*
X137061052Y-83563948D01*
X137126308Y-83661609D01*
X137147186Y-83728286D01*
X137128702Y-83795666D01*
X137076723Y-83842357D01*
X137023206Y-83854500D01*
X135901195Y-83854500D01*
X135834156Y-83834815D01*
X135813518Y-83818185D01*
X135759198Y-83763865D01*
X135620993Y-83682131D01*
X135620988Y-83682129D01*
X135466808Y-83637335D01*
X135466802Y-83637334D01*
X135430781Y-83634500D01*
X135032430Y-83634500D01*
X135032416Y-83634501D01*
X135022019Y-83635319D01*
X134953643Y-83620949D01*
X134903890Y-83571894D01*
X134888300Y-83511700D01*
X134888300Y-82844274D01*
X134907985Y-82777235D01*
X134960789Y-82731480D01*
X135029947Y-82721536D01*
X135046886Y-82725195D01*
X135072596Y-82732665D01*
X135108619Y-82735500D01*
X135506980Y-82735499D01*
X135543004Y-82732665D01*
X135697193Y-82687869D01*
X135835398Y-82606135D01*
X135889715Y-82551817D01*
X135951036Y-82518334D01*
X135977395Y-82515500D01*
X137023206Y-82515500D01*
X137090245Y-82535185D01*
G37*
%TD.AperFunction*%
%TA.AperFunction,Conductor*%
G36*
X137353039Y-78200985D02*
G01*
X137398794Y-78253789D01*
X137410000Y-78305300D01*
X137410000Y-78306988D01*
X137352993Y-78274075D01*
X137225826Y-78240000D01*
X137094174Y-78240000D01*
X136967007Y-78274075D01*
X136910000Y-78306988D01*
X136910000Y-78305300D01*
X136929685Y-78238261D01*
X136982489Y-78192506D01*
X137034000Y-78181300D01*
X137286000Y-78181300D01*
X137353039Y-78200985D01*
G37*
%TD.AperFunction*%
%TA.AperFunction,Conductor*%
G36*
X137410000Y-76856300D02*
G01*
X137390315Y-76923339D01*
X137337511Y-76969094D01*
X137286000Y-76980300D01*
X137034000Y-76980300D01*
X136966961Y-76960615D01*
X136921206Y-76907811D01*
X136910000Y-76856300D01*
X136910000Y-76633012D01*
X136967007Y-76665925D01*
X137094174Y-76700000D01*
X137225826Y-76700000D01*
X137352993Y-76665925D01*
X137410000Y-76633012D01*
X137410000Y-76856300D01*
G37*
%TD.AperFunction*%
%TA.AperFunction,Conductor*%
G36*
X149302539Y-66059685D02*
G01*
X149348294Y-66112489D01*
X149359500Y-66164000D01*
X149359500Y-90255500D01*
X149339815Y-90322539D01*
X149287011Y-90368294D01*
X149235500Y-90379500D01*
X132704500Y-90379500D01*
X132637461Y-90359815D01*
X132591706Y-90307011D01*
X132580500Y-90255500D01*
X132580500Y-85975000D01*
X137007639Y-85975000D01*
X137061047Y-86103938D01*
X137061052Y-86103948D01*
X137148598Y-86234969D01*
X137148601Y-86234973D01*
X137260026Y-86346398D01*
X137260030Y-86346401D01*
X137391051Y-86433947D01*
X137391060Y-86433952D01*
X137536648Y-86494256D01*
X137536656Y-86494258D01*
X137691202Y-86524999D01*
X137691206Y-86525000D01*
X137920000Y-86525000D01*
X137920000Y-85975000D01*
X137007639Y-85975000D01*
X132580500Y-85975000D01*
X132580500Y-84754754D01*
X132867798Y-84754754D01*
X132867799Y-84754757D01*
X132908723Y-84907485D01*
X132908724Y-84907487D01*
X132908723Y-84907487D01*
X132918547Y-84924501D01*
X132918548Y-84924502D01*
X132987777Y-85044412D01*
X132987781Y-85044417D01*
X133106649Y-85163285D01*
X133106655Y-85163290D01*
X133410939Y-85467574D01*
X133410949Y-85467585D01*
X133415279Y-85471915D01*
X133415280Y-85471916D01*
X133527084Y-85583720D01*
X133613895Y-85633839D01*
X133613897Y-85633841D01*
X133664013Y-85662776D01*
X133664015Y-85662777D01*
X133816742Y-85703700D01*
X133816743Y-85703700D01*
X134496731Y-85703700D01*
X134496747Y-85703701D01*
X134504343Y-85703701D01*
X134662454Y-85703701D01*
X134662457Y-85703701D01*
X134815185Y-85662777D01*
X134865304Y-85633839D01*
X134952116Y-85583720D01*
X135063920Y-85471916D01*
X135063921Y-85471913D01*
X135224018Y-85311815D01*
X135285339Y-85278333D01*
X135311697Y-85275499D01*
X135430768Y-85275499D01*
X135430780Y-85275499D01*
X135466804Y-85272665D01*
X135620993Y-85227869D01*
X135759198Y-85146135D01*
X135813515Y-85091817D01*
X135874836Y-85058334D01*
X135901195Y-85055500D01*
X137023206Y-85055500D01*
X137090245Y-85075185D01*
X137136000Y-85127989D01*
X137145944Y-85197147D01*
X137126308Y-85248391D01*
X137061052Y-85346051D01*
X137061047Y-85346061D01*
X137007639Y-85474999D01*
X137007639Y-85475000D01*
X138296000Y-85475000D01*
X138363039Y-85494685D01*
X138408794Y-85547489D01*
X138420000Y-85599000D01*
X138420000Y-86525000D01*
X138648794Y-86525000D01*
X138648797Y-86524999D01*
X138803343Y-86494258D01*
X138803351Y-86494256D01*
X138951219Y-86433008D01*
X139020689Y-86425539D01*
X139083168Y-86456814D01*
X139086353Y-86459888D01*
X140078603Y-87452138D01*
X140112088Y-87513461D01*
X140107104Y-87583153D01*
X140078603Y-87627501D01*
X139976284Y-87729819D01*
X139914961Y-87763303D01*
X139845269Y-87758319D01*
X139789336Y-87716447D01*
X139772421Y-87685470D01*
X139723354Y-87553913D01*
X139723350Y-87553906D01*
X139637190Y-87438812D01*
X139637187Y-87438809D01*
X139522093Y-87352649D01*
X139522086Y-87352645D01*
X139387379Y-87302403D01*
X139387372Y-87302401D01*
X139327844Y-87296000D01*
X138680000Y-87296000D01*
X138680000Y-88212988D01*
X138622993Y-88180075D01*
X138495826Y-88146000D01*
X138364174Y-88146000D01*
X138237007Y-88180075D01*
X138180000Y-88212988D01*
X138180000Y-87296000D01*
X137532155Y-87296000D01*
X137472627Y-87302401D01*
X137472620Y-87302403D01*
X137337913Y-87352645D01*
X137337906Y-87352649D01*
X137222812Y-87438809D01*
X137222809Y-87438812D01*
X137136649Y-87553906D01*
X137136645Y-87553913D01*
X137086403Y-87688620D01*
X137086401Y-87688627D01*
X137080000Y-87748155D01*
X137080000Y-88396000D01*
X137996988Y-88396000D01*
X137964075Y-88453007D01*
X137930000Y-88580174D01*
X137930000Y-88711826D01*
X137964075Y-88838993D01*
X137996988Y-88896000D01*
X137080000Y-88896000D01*
X137080000Y-89543844D01*
X137086401Y-89603372D01*
X137086403Y-89603379D01*
X137136645Y-89738086D01*
X137136649Y-89738093D01*
X137222809Y-89853187D01*
X137222812Y-89853190D01*
X137337906Y-89939350D01*
X137337913Y-89939354D01*
X137472620Y-89989596D01*
X137472627Y-89989598D01*
X137532155Y-89995999D01*
X137532172Y-89996000D01*
X138180000Y-89996000D01*
X138180000Y-89079012D01*
X138237007Y-89111925D01*
X138364174Y-89146000D01*
X138495826Y-89146000D01*
X138622993Y-89111925D01*
X138680000Y-89079012D01*
X138680000Y-89996000D01*
X139327828Y-89996000D01*
X139327844Y-89995999D01*
X139387372Y-89989598D01*
X139387379Y-89989596D01*
X139522086Y-89939354D01*
X139522093Y-89939350D01*
X139637187Y-89853190D01*
X139637190Y-89853187D01*
X139723350Y-89738093D01*
X139723354Y-89738086D01*
X139772422Y-89606529D01*
X139814293Y-89550595D01*
X139879757Y-89526178D01*
X139948030Y-89541030D01*
X139976285Y-89562181D01*
X140098599Y-89684495D01*
X140175135Y-89738086D01*
X140292165Y-89820032D01*
X140292167Y-89820033D01*
X140292170Y-89820035D01*
X140506337Y-89919903D01*
X140734592Y-89981063D01*
X140905319Y-89996000D01*
X140969999Y-90001659D01*
X140970000Y-90001659D01*
X140970001Y-90001659D01*
X141034681Y-89996000D01*
X141205408Y-89981063D01*
X141433663Y-89919903D01*
X141647830Y-89820035D01*
X141841401Y-89684495D01*
X142008495Y-89517401D01*
X142138425Y-89331842D01*
X142193002Y-89288217D01*
X142262500Y-89281023D01*
X142324855Y-89312546D01*
X142341575Y-89331842D01*
X142471500Y-89517395D01*
X142471505Y-89517401D01*
X142638599Y-89684495D01*
X142715135Y-89738086D01*
X142832165Y-89820032D01*
X142832167Y-89820033D01*
X142832170Y-89820035D01*
X143046337Y-89919903D01*
X143274592Y-89981063D01*
X143445319Y-89996000D01*
X143509999Y-90001659D01*
X143510000Y-90001659D01*
X143510001Y-90001659D01*
X143574681Y-89996000D01*
X143745408Y-89981063D01*
X143973663Y-89919903D01*
X144187830Y-89820035D01*
X144381401Y-89684495D01*
X144548495Y-89517401D01*
X144684035Y-89323830D01*
X144783903Y-89109663D01*
X144845063Y-88881408D01*
X144865659Y-88646000D01*
X144845063Y-88410592D01*
X144783903Y-88182337D01*
X144684035Y-87968171D01*
X144678425Y-87960158D01*
X144548494Y-87774597D01*
X144381402Y-87607506D01*
X144381395Y-87607501D01*
X144187831Y-87471965D01*
X144187829Y-87471964D01*
X144169231Y-87463292D01*
X144116792Y-87417120D01*
X144101861Y-87383002D01*
X144082552Y-87310935D01*
X144082552Y-87310934D01*
X144069578Y-87262517D01*
X144069577Y-87262516D01*
X144069577Y-87262515D01*
X144040639Y-87212395D01*
X143990520Y-87125584D01*
X143878716Y-87013780D01*
X143878715Y-87013779D01*
X143874385Y-87009449D01*
X143874374Y-87009439D01*
X143602116Y-86737181D01*
X143568631Y-86675858D01*
X143573615Y-86606166D01*
X143615487Y-86550233D01*
X143680951Y-86525816D01*
X143689797Y-86525500D01*
X144248844Y-86525500D01*
X144248845Y-86525499D01*
X144403497Y-86494737D01*
X144549179Y-86434394D01*
X144549841Y-86433952D01*
X144576513Y-86416130D01*
X144680289Y-86346789D01*
X144791789Y-86235289D01*
X144879394Y-86104179D01*
X144939737Y-85958497D01*
X144970500Y-85803842D01*
X144970500Y-85646158D01*
X144970500Y-85646155D01*
X144970499Y-85646153D01*
X144940370Y-85494685D01*
X144939737Y-85491503D01*
X144929830Y-85467585D01*
X144879397Y-85345827D01*
X144879390Y-85345814D01*
X144814294Y-85248391D01*
X144793416Y-85181713D01*
X144811901Y-85114333D01*
X144863879Y-85067643D01*
X144917396Y-85055500D01*
X144985903Y-85055500D01*
X145052942Y-85075185D01*
X145073584Y-85091819D01*
X145749181Y-85767416D01*
X145782666Y-85828739D01*
X145785500Y-85855096D01*
X145785500Y-85974168D01*
X145785501Y-85974192D01*
X145788335Y-86010205D01*
X145833129Y-86164388D01*
X145833131Y-86164393D01*
X145914863Y-86302595D01*
X145914869Y-86302603D01*
X146028396Y-86416130D01*
X146028400Y-86416133D01*
X146028402Y-86416135D01*
X146166607Y-86497869D01*
X146166614Y-86497871D01*
X146320791Y-86542664D01*
X146320794Y-86542664D01*
X146320796Y-86542665D01*
X146356819Y-86545500D01*
X146755180Y-86545499D01*
X146791204Y-86542665D01*
X146945393Y-86497869D01*
X147002882Y-86463869D01*
X147070602Y-86446688D01*
X147129117Y-86463869D01*
X147186607Y-86497869D01*
X147186610Y-86497869D01*
X147186612Y-86497871D01*
X147340791Y-86542664D01*
X147340794Y-86542664D01*
X147340796Y-86542665D01*
X147376819Y-86545500D01*
X147775180Y-86545499D01*
X147811204Y-86542665D01*
X147965393Y-86497869D01*
X148103598Y-86416135D01*
X148217135Y-86302598D01*
X148298869Y-86164393D01*
X148343665Y-86010204D01*
X148346500Y-85974181D01*
X148346499Y-85475820D01*
X148343665Y-85439796D01*
X148298869Y-85285607D01*
X148217135Y-85147402D01*
X148217133Y-85147400D01*
X148217130Y-85147396D01*
X148103603Y-85033869D01*
X148103595Y-85033863D01*
X147965393Y-84952131D01*
X147965388Y-84952129D01*
X147811208Y-84907335D01*
X147811202Y-84907334D01*
X147775188Y-84904500D01*
X147775181Y-84904500D01*
X147656097Y-84904500D01*
X147589058Y-84884815D01*
X147568416Y-84868181D01*
X146607915Y-83907680D01*
X146574430Y-83846357D01*
X146579414Y-83776665D01*
X146607911Y-83732323D01*
X147568416Y-82771817D01*
X147629739Y-82738333D01*
X147656097Y-82735499D01*
X147775168Y-82735499D01*
X147775180Y-82735499D01*
X147811204Y-82732665D01*
X147965393Y-82687869D01*
X148103598Y-82606135D01*
X148217135Y-82492598D01*
X148298869Y-82354393D01*
X148343665Y-82200204D01*
X148346500Y-82164181D01*
X148346499Y-81665820D01*
X148343665Y-81629796D01*
X148298869Y-81475607D01*
X148217135Y-81337402D01*
X148217133Y-81337400D01*
X148217130Y-81337396D01*
X148103603Y-81223869D01*
X148103595Y-81223863D01*
X147965393Y-81142131D01*
X147965388Y-81142129D01*
X147811208Y-81097335D01*
X147811202Y-81097334D01*
X147775181Y-81094500D01*
X147376830Y-81094500D01*
X147376808Y-81094501D01*
X147340794Y-81097335D01*
X147186611Y-81142129D01*
X147186604Y-81142132D01*
X147129119Y-81176128D01*
X147061395Y-81193309D01*
X147002881Y-81176128D01*
X146945395Y-81142132D01*
X146945388Y-81142129D01*
X146791208Y-81097335D01*
X146791202Y-81097334D01*
X146755181Y-81094500D01*
X146356830Y-81094500D01*
X146356808Y-81094501D01*
X146320794Y-81097335D01*
X146166611Y-81142129D01*
X146166606Y-81142131D01*
X146028404Y-81223863D01*
X146028400Y-81223866D01*
X146001243Y-81251023D01*
X145974084Y-81278182D01*
X145912764Y-81311666D01*
X145886405Y-81314500D01*
X144749766Y-81314500D01*
X144682727Y-81294815D01*
X144680875Y-81293602D01*
X144549185Y-81205609D01*
X144549172Y-81205602D01*
X144403501Y-81145264D01*
X144403489Y-81145261D01*
X144248845Y-81114500D01*
X144248842Y-81114500D01*
X143291158Y-81114500D01*
X143291155Y-81114500D01*
X143136510Y-81145261D01*
X143136498Y-81145264D01*
X142990827Y-81205602D01*
X142990814Y-81205609D01*
X142859711Y-81293210D01*
X142859707Y-81293213D01*
X142748213Y-81404707D01*
X142748210Y-81404711D01*
X142660609Y-81535814D01*
X142660602Y-81535827D01*
X142600262Y-81681503D01*
X142599517Y-81683961D01*
X142598776Y-81685090D01*
X142597932Y-81687130D01*
X142597545Y-81686969D01*
X142561217Y-81742398D01*
X142497404Y-81770852D01*
X142428337Y-81760289D01*
X142393177Y-81735642D01*
X140591396Y-79933861D01*
X140557911Y-79872538D01*
X140562895Y-79802846D01*
X140591392Y-79758503D01*
X140738495Y-79611401D01*
X140868427Y-79425838D01*
X140923000Y-79382216D01*
X140992499Y-79375022D01*
X141054854Y-79406544D01*
X141071572Y-79425838D01*
X141201505Y-79611401D01*
X141368599Y-79778495D01*
X141403376Y-79802846D01*
X141562165Y-79914032D01*
X141562167Y-79914033D01*
X141562170Y-79914035D01*
X141776337Y-80013903D01*
X142004592Y-80075063D01*
X142192918Y-80091539D01*
X142239999Y-80095659D01*
X142240000Y-80095659D01*
X142240001Y-80095659D01*
X142279234Y-80092226D01*
X142475408Y-80075063D01*
X142703663Y-80013903D01*
X142917830Y-79914035D01*
X143111401Y-79778495D01*
X143278495Y-79611401D01*
X143408426Y-79425841D01*
X143463002Y-79382217D01*
X143532500Y-79375023D01*
X143594855Y-79406546D01*
X143611575Y-79425842D01*
X143741500Y-79611395D01*
X143741505Y-79611401D01*
X143908599Y-79778495D01*
X143943376Y-79802846D01*
X144102165Y-79914032D01*
X144102167Y-79914033D01*
X144102170Y-79914035D01*
X144316337Y-80013903D01*
X144544592Y-80075063D01*
X144732918Y-80091539D01*
X144779999Y-80095659D01*
X144780000Y-80095659D01*
X144780001Y-80095659D01*
X144819234Y-80092226D01*
X145015408Y-80075063D01*
X145243663Y-80013903D01*
X145457830Y-79914035D01*
X145651401Y-79778495D01*
X145818495Y-79611401D01*
X145948426Y-79425841D01*
X146003002Y-79382217D01*
X146072500Y-79375023D01*
X146134855Y-79406546D01*
X146151575Y-79425842D01*
X146281500Y-79611395D01*
X146281505Y-79611401D01*
X146448599Y-79778495D01*
X146483376Y-79802846D01*
X146642165Y-79914032D01*
X146642167Y-79914033D01*
X146642170Y-79914035D01*
X146856337Y-80013903D01*
X147084592Y-80075063D01*
X147272918Y-80091539D01*
X147319999Y-80095659D01*
X147320000Y-80095659D01*
X147320001Y-80095659D01*
X147359234Y-80092226D01*
X147555408Y-80075063D01*
X147783663Y-80013903D01*
X147997830Y-79914035D01*
X148191401Y-79778495D01*
X148358495Y-79611401D01*
X148494035Y-79417830D01*
X148593903Y-79203663D01*
X148655063Y-78975408D01*
X148675659Y-78740000D01*
X148655063Y-78504592D01*
X148593903Y-78276337D01*
X148494035Y-78062171D01*
X148488425Y-78054158D01*
X148358494Y-77868597D01*
X148191402Y-77701506D01*
X148191396Y-77701501D01*
X148005842Y-77571575D01*
X147962217Y-77516998D01*
X147955023Y-77447500D01*
X147986546Y-77385145D01*
X148005842Y-77368425D01*
X148028026Y-77352891D01*
X148191401Y-77238495D01*
X148358495Y-77071401D01*
X148494035Y-76877830D01*
X148593903Y-76663663D01*
X148655063Y-76435408D01*
X148675659Y-76200000D01*
X148655063Y-75964592D01*
X148593903Y-75736337D01*
X148494035Y-75522171D01*
X148488731Y-75514595D01*
X148358494Y-75328597D01*
X148191402Y-75161506D01*
X148191395Y-75161501D01*
X147997834Y-75025967D01*
X147997830Y-75025965D01*
X147997828Y-75025964D01*
X147783663Y-74926097D01*
X147783659Y-74926096D01*
X147783655Y-74926094D01*
X147555413Y-74864938D01*
X147555403Y-74864936D01*
X147320001Y-74844341D01*
X147319999Y-74844341D01*
X147084596Y-74864936D01*
X147084586Y-74864938D01*
X146856344Y-74926094D01*
X146856335Y-74926098D01*
X146642171Y-75025964D01*
X146642169Y-75025965D01*
X146448597Y-75161505D01*
X146281505Y-75328597D01*
X146151575Y-75514158D01*
X146096998Y-75557783D01*
X146027500Y-75564977D01*
X145965145Y-75533454D01*
X145948425Y-75514158D01*
X145818494Y-75328597D01*
X145651402Y-75161506D01*
X145651395Y-75161501D01*
X145457834Y-75025967D01*
X145457830Y-75025965D01*
X145457828Y-75025964D01*
X145243663Y-74926097D01*
X145243659Y-74926096D01*
X145243655Y-74926094D01*
X145015413Y-74864938D01*
X145015403Y-74864936D01*
X144780001Y-74844341D01*
X144779999Y-74844341D01*
X144544596Y-74864936D01*
X144544586Y-74864938D01*
X144316344Y-74926094D01*
X144316335Y-74926098D01*
X144102171Y-75025964D01*
X144102169Y-75025965D01*
X143908597Y-75161505D01*
X143741505Y-75328597D01*
X143611575Y-75514158D01*
X143556998Y-75557783D01*
X143487500Y-75564977D01*
X143425145Y-75533454D01*
X143408425Y-75514158D01*
X143278494Y-75328597D01*
X143111402Y-75161506D01*
X143111395Y-75161501D01*
X142917834Y-75025967D01*
X142917830Y-75025965D01*
X142917828Y-75025964D01*
X142703663Y-74926097D01*
X142703659Y-74926096D01*
X142703655Y-74926094D01*
X142475413Y-74864938D01*
X142475403Y-74864936D01*
X142240001Y-74844341D01*
X142239999Y-74844341D01*
X142004596Y-74864936D01*
X142004586Y-74864938D01*
X141776344Y-74926094D01*
X141776335Y-74926098D01*
X141562171Y-75025964D01*
X141562169Y-75025965D01*
X141368597Y-75161505D01*
X141201505Y-75328597D01*
X141071575Y-75514158D01*
X141016998Y-75557783D01*
X140947500Y-75564977D01*
X140885145Y-75533454D01*
X140868425Y-75514158D01*
X140738494Y-75328597D01*
X140571402Y-75161506D01*
X140571395Y-75161501D01*
X140377834Y-75025967D01*
X140377830Y-75025965D01*
X140377828Y-75025964D01*
X140163663Y-74926097D01*
X140163659Y-74926096D01*
X140163655Y-74926094D01*
X139935413Y-74864938D01*
X139935403Y-74864936D01*
X139700001Y-74844341D01*
X139699999Y-74844341D01*
X139464596Y-74864936D01*
X139464586Y-74864938D01*
X139236344Y-74926094D01*
X139236335Y-74926098D01*
X139022171Y-75025964D01*
X139022169Y-75025965D01*
X138828597Y-75161505D01*
X138661508Y-75328594D01*
X138531269Y-75514595D01*
X138476692Y-75558219D01*
X138407193Y-75565412D01*
X138344839Y-75533890D01*
X138328119Y-75514594D01*
X138198113Y-75328926D01*
X138198108Y-75328920D01*
X138031082Y-75161894D01*
X137837578Y-75026399D01*
X137623492Y-74926570D01*
X137623486Y-74926567D01*
X137410000Y-74869364D01*
X137410000Y-75766988D01*
X137352993Y-75734075D01*
X137225826Y-75700000D01*
X137094174Y-75700000D01*
X136967007Y-75734075D01*
X136910000Y-75766988D01*
X136910000Y-74869364D01*
X136909999Y-74869364D01*
X136696513Y-74926567D01*
X136696507Y-74926570D01*
X136482422Y-75026399D01*
X136482420Y-75026400D01*
X136288926Y-75161886D01*
X136166865Y-75283947D01*
X136105542Y-75317431D01*
X136035850Y-75312447D01*
X135979917Y-75270575D01*
X135963002Y-75239598D01*
X135913797Y-75107671D01*
X135913793Y-75107664D01*
X135827547Y-74992455D01*
X135827544Y-74992452D01*
X135712335Y-74906206D01*
X135712328Y-74906202D01*
X135577482Y-74855908D01*
X135577483Y-74855908D01*
X135517883Y-74849501D01*
X135517881Y-74849500D01*
X135517873Y-74849500D01*
X135517864Y-74849500D01*
X133722129Y-74849500D01*
X133722123Y-74849501D01*
X133662516Y-74855908D01*
X133527671Y-74906202D01*
X133527664Y-74906206D01*
X133412455Y-74992452D01*
X133412452Y-74992455D01*
X133326206Y-75107664D01*
X133326202Y-75107671D01*
X133275908Y-75242517D01*
X133269501Y-75302116D01*
X133269500Y-75302135D01*
X133269500Y-76994615D01*
X133249815Y-77061654D01*
X133215903Y-77093991D01*
X133216932Y-77095332D01*
X133210484Y-77100279D01*
X133182168Y-77128596D01*
X133099584Y-77211180D01*
X132987781Y-77322982D01*
X132987777Y-77322987D01*
X132949377Y-77389500D01*
X132949377Y-77389501D01*
X132908723Y-77459914D01*
X132899992Y-77492500D01*
X132867799Y-77612643D01*
X132867799Y-77612645D01*
X132867799Y-77780746D01*
X132867800Y-77780759D01*
X132867800Y-84589030D01*
X132867799Y-84589048D01*
X132867799Y-84754754D01*
X132867798Y-84754754D01*
X132580500Y-84754754D01*
X132580500Y-66164000D01*
X132600185Y-66096961D01*
X132652989Y-66051206D01*
X132704500Y-66040000D01*
X149235500Y-66040000D01*
X149302539Y-66059685D01*
G37*
%TD.AperFunction*%
%TD*%
M02*
