%TF.GenerationSoftware,KiCad,Pcbnew,8.0.5*%
%TF.CreationDate,2024-11-06T12:15:13-05:00*%
%TF.ProjectId,Debug Adapter,44656275-6720-4416-9461-707465722e6b,rev?*%
%TF.SameCoordinates,Original*%
%TF.FileFunction,Copper,L1,Top*%
%TF.FilePolarity,Positive*%
%FSLAX46Y46*%
G04 Gerber Fmt 4.6, Leading zero omitted, Abs format (unit mm)*
G04 Created by KiCad (PCBNEW 8.0.5) date 2024-11-06 12:15:13*
%MOMM*%
%LPD*%
G01*
G04 APERTURE LIST*
%TA.AperFunction,ComponentPad*%
%ADD10R,1.700000X1.700000*%
%TD*%
%TA.AperFunction,ComponentPad*%
%ADD11O,1.700000X1.700000*%
%TD*%
%TA.AperFunction,ViaPad*%
%ADD12C,0.600000*%
%TD*%
%TA.AperFunction,Conductor*%
%ADD13C,0.200000*%
%TD*%
G04 APERTURE END LIST*
D10*
%TO.P,J3,1,Pin_1*%
%TO.N,+5V*%
X134620000Y-76200000D03*
D11*
%TO.P,J3,2,Pin_2*%
%TO.N,GND*%
X137160000Y-76200000D03*
%TO.P,J3,3,Pin_3*%
%TO.N,TXD*%
X139700000Y-76200000D03*
%TO.P,J3,4,Pin_4*%
%TO.N,RXD*%
X142240000Y-76200000D03*
%TO.P,J3,5,Pin_5*%
%TO.N,CTS*%
X144780000Y-76200000D03*
%TO.P,J3,6,Pin_6*%
X147320000Y-76200000D03*
%TD*%
D10*
%TO.P,J1,1,Pin_1*%
%TO.N,GND*%
X138430000Y-88646000D03*
D11*
%TO.P,J1,2,Pin_2*%
%TO.N,RXD Reflow*%
X140970000Y-88646000D03*
%TO.P,J1,3,Pin_3*%
%TO.N,TXD Reflow*%
X143510000Y-88646000D03*
%TD*%
D10*
%TO.P,J2,1,Pin_1*%
%TO.N,+5V*%
X134620000Y-78740000D03*
D11*
%TO.P,J2,2,Pin_2*%
%TO.N,GND*%
X137160000Y-78740000D03*
%TO.P,J2,3,Pin_3*%
%TO.N,TXD*%
X139700000Y-78740000D03*
%TO.P,J2,4,Pin_4*%
%TO.N,RXD*%
X142240000Y-78740000D03*
%TO.P,J2,5,Pin_5*%
%TO.N,CTS*%
X144780000Y-78740000D03*
%TO.P,J2,6,Pin_6*%
X147320000Y-78740000D03*
%TD*%
D12*
%TO.N,GND*%
X136321800Y-83185000D03*
%TD*%
D13*
%TO.N,+5V*%
X134620000Y-78740000D02*
X134620000Y-76200000D01*
%TO.N,CTS*%
X144780000Y-76200000D02*
X145931700Y-76200000D01*
X147320000Y-76200000D02*
X145931700Y-76200000D01*
X144780000Y-78740000D02*
X145931700Y-78740000D01*
X147320000Y-78740000D02*
X147320000Y-76200000D01*
X147320000Y-78740000D02*
X145931700Y-78740000D01*
%TO.N,TXD*%
X139700000Y-78740000D02*
X139700000Y-76200000D01*
%TD*%
%TA.AperFunction,Conductor*%
%TO.N,GND*%
G36*
X137410000Y-78306988D02*
G01*
X137352993Y-78274075D01*
X137225826Y-78240000D01*
X137094174Y-78240000D01*
X136967007Y-78274075D01*
X136910000Y-78306988D01*
X136910000Y-76633012D01*
X136967007Y-76665925D01*
X137094174Y-76700000D01*
X137225826Y-76700000D01*
X137352993Y-76665925D01*
X137410000Y-76633012D01*
X137410000Y-78306988D01*
G37*
%TD.AperFunction*%
%TA.AperFunction,Conductor*%
G36*
X149302539Y-66059685D02*
G01*
X149348294Y-66112489D01*
X149359500Y-66164000D01*
X149359500Y-90255500D01*
X149339815Y-90322539D01*
X149287011Y-90368294D01*
X149235500Y-90379500D01*
X132704500Y-90379500D01*
X132637461Y-90359815D01*
X132591706Y-90307011D01*
X132580500Y-90255500D01*
X132580500Y-87748155D01*
X137080000Y-87748155D01*
X137080000Y-88396000D01*
X137996988Y-88396000D01*
X137964075Y-88453007D01*
X137930000Y-88580174D01*
X137930000Y-88711826D01*
X137964075Y-88838993D01*
X137996988Y-88896000D01*
X137080000Y-88896000D01*
X137080000Y-89543844D01*
X137086401Y-89603372D01*
X137086403Y-89603379D01*
X137136645Y-89738086D01*
X137136649Y-89738093D01*
X137222809Y-89853187D01*
X137222812Y-89853190D01*
X137337906Y-89939350D01*
X137337913Y-89939354D01*
X137472620Y-89989596D01*
X137472627Y-89989598D01*
X137532155Y-89995999D01*
X137532172Y-89996000D01*
X138180000Y-89996000D01*
X138180000Y-89079012D01*
X138237007Y-89111925D01*
X138364174Y-89146000D01*
X138495826Y-89146000D01*
X138622993Y-89111925D01*
X138680000Y-89079012D01*
X138680000Y-89996000D01*
X139327828Y-89996000D01*
X139327844Y-89995999D01*
X139387372Y-89989598D01*
X139387379Y-89989596D01*
X139522086Y-89939354D01*
X139522093Y-89939350D01*
X139637187Y-89853190D01*
X139637190Y-89853187D01*
X139723350Y-89738093D01*
X139723354Y-89738086D01*
X139772422Y-89606529D01*
X139814293Y-89550595D01*
X139879757Y-89526178D01*
X139948030Y-89541030D01*
X139976285Y-89562181D01*
X140098599Y-89684495D01*
X140175135Y-89738086D01*
X140292165Y-89820032D01*
X140292167Y-89820033D01*
X140292170Y-89820035D01*
X140506337Y-89919903D01*
X140734592Y-89981063D01*
X140905319Y-89996000D01*
X140969999Y-90001659D01*
X140970000Y-90001659D01*
X140970001Y-90001659D01*
X141034681Y-89996000D01*
X141205408Y-89981063D01*
X141433663Y-89919903D01*
X141647830Y-89820035D01*
X141841401Y-89684495D01*
X142008495Y-89517401D01*
X142138425Y-89331842D01*
X142193002Y-89288217D01*
X142262500Y-89281023D01*
X142324855Y-89312546D01*
X142341575Y-89331842D01*
X142471500Y-89517395D01*
X142471505Y-89517401D01*
X142638599Y-89684495D01*
X142715135Y-89738086D01*
X142832165Y-89820032D01*
X142832167Y-89820033D01*
X142832170Y-89820035D01*
X143046337Y-89919903D01*
X143274592Y-89981063D01*
X143445319Y-89996000D01*
X143509999Y-90001659D01*
X143510000Y-90001659D01*
X143510001Y-90001659D01*
X143574681Y-89996000D01*
X143745408Y-89981063D01*
X143973663Y-89919903D01*
X144187830Y-89820035D01*
X144381401Y-89684495D01*
X144548495Y-89517401D01*
X144684035Y-89323830D01*
X144783903Y-89109663D01*
X144845063Y-88881408D01*
X144865659Y-88646000D01*
X144845063Y-88410592D01*
X144783903Y-88182337D01*
X144684035Y-87968171D01*
X144678425Y-87960158D01*
X144548494Y-87774597D01*
X144381402Y-87607506D01*
X144381395Y-87607501D01*
X144187834Y-87471967D01*
X144187830Y-87471965D01*
X144116727Y-87438809D01*
X143973663Y-87372097D01*
X143973659Y-87372096D01*
X143973655Y-87372094D01*
X143745413Y-87310938D01*
X143745403Y-87310936D01*
X143510001Y-87290341D01*
X143509999Y-87290341D01*
X143274596Y-87310936D01*
X143274586Y-87310938D01*
X143046344Y-87372094D01*
X143046335Y-87372098D01*
X142832171Y-87471964D01*
X142832169Y-87471965D01*
X142638597Y-87607505D01*
X142471505Y-87774597D01*
X142341575Y-87960158D01*
X142286998Y-88003783D01*
X142217500Y-88010977D01*
X142155145Y-87979454D01*
X142138425Y-87960158D01*
X142008494Y-87774597D01*
X141841402Y-87607506D01*
X141841395Y-87607501D01*
X141647834Y-87471967D01*
X141647830Y-87471965D01*
X141576727Y-87438809D01*
X141433663Y-87372097D01*
X141433659Y-87372096D01*
X141433655Y-87372094D01*
X141205413Y-87310938D01*
X141205403Y-87310936D01*
X140970001Y-87290341D01*
X140969999Y-87290341D01*
X140734596Y-87310936D01*
X140734586Y-87310938D01*
X140506344Y-87372094D01*
X140506335Y-87372098D01*
X140292171Y-87471964D01*
X140292169Y-87471965D01*
X140098600Y-87607503D01*
X139976284Y-87729819D01*
X139914961Y-87763303D01*
X139845269Y-87758319D01*
X139789336Y-87716447D01*
X139772421Y-87685470D01*
X139723354Y-87553913D01*
X139723350Y-87553906D01*
X139637190Y-87438812D01*
X139637187Y-87438809D01*
X139522093Y-87352649D01*
X139522086Y-87352645D01*
X139387379Y-87302403D01*
X139387372Y-87302401D01*
X139327844Y-87296000D01*
X138680000Y-87296000D01*
X138680000Y-88212988D01*
X138622993Y-88180075D01*
X138495826Y-88146000D01*
X138364174Y-88146000D01*
X138237007Y-88180075D01*
X138180000Y-88212988D01*
X138180000Y-87296000D01*
X137532155Y-87296000D01*
X137472627Y-87302401D01*
X137472620Y-87302403D01*
X137337913Y-87352645D01*
X137337906Y-87352649D01*
X137222812Y-87438809D01*
X137222809Y-87438812D01*
X137136649Y-87553906D01*
X137136645Y-87553913D01*
X137086403Y-87688620D01*
X137086401Y-87688627D01*
X137080000Y-87748155D01*
X132580500Y-87748155D01*
X132580500Y-75302135D01*
X133269500Y-75302135D01*
X133269500Y-77097870D01*
X133269501Y-77097876D01*
X133275908Y-77157483D01*
X133326202Y-77292328D01*
X133326203Y-77292330D01*
X133403578Y-77395689D01*
X133427995Y-77461153D01*
X133413144Y-77529426D01*
X133403578Y-77544311D01*
X133326203Y-77647669D01*
X133326202Y-77647671D01*
X133275908Y-77782517D01*
X133269501Y-77842116D01*
X133269500Y-77842135D01*
X133269500Y-79637870D01*
X133269501Y-79637876D01*
X133275908Y-79697483D01*
X133326202Y-79832328D01*
X133326206Y-79832335D01*
X133412452Y-79947544D01*
X133412455Y-79947547D01*
X133527664Y-80033793D01*
X133527671Y-80033797D01*
X133662517Y-80084091D01*
X133662516Y-80084091D01*
X133669444Y-80084835D01*
X133722127Y-80090500D01*
X135517872Y-80090499D01*
X135577483Y-80084091D01*
X135712331Y-80033796D01*
X135827546Y-79947546D01*
X135913796Y-79832331D01*
X135963002Y-79700401D01*
X136004872Y-79644468D01*
X136070337Y-79620050D01*
X136138610Y-79634901D01*
X136166865Y-79656053D01*
X136288917Y-79778105D01*
X136482421Y-79913600D01*
X136696507Y-80013429D01*
X136696516Y-80013433D01*
X136910000Y-80070634D01*
X136910000Y-79173012D01*
X136967007Y-79205925D01*
X137094174Y-79240000D01*
X137225826Y-79240000D01*
X137352993Y-79205925D01*
X137410000Y-79173012D01*
X137410000Y-80070633D01*
X137623483Y-80013433D01*
X137623492Y-80013429D01*
X137837578Y-79913600D01*
X138031082Y-79778105D01*
X138198105Y-79611082D01*
X138328119Y-79425405D01*
X138382696Y-79381781D01*
X138452195Y-79374588D01*
X138514549Y-79406110D01*
X138531269Y-79425405D01*
X138661505Y-79611401D01*
X138828599Y-79778495D01*
X138925384Y-79846265D01*
X139022165Y-79914032D01*
X139022167Y-79914033D01*
X139022170Y-79914035D01*
X139236337Y-80013903D01*
X139464592Y-80075063D01*
X139641034Y-80090500D01*
X139699999Y-80095659D01*
X139700000Y-80095659D01*
X139700001Y-80095659D01*
X139758966Y-80090500D01*
X139935408Y-80075063D01*
X140163663Y-80013903D01*
X140377830Y-79914035D01*
X140571401Y-79778495D01*
X140738495Y-79611401D01*
X140868425Y-79425842D01*
X140923002Y-79382217D01*
X140992500Y-79375023D01*
X141054855Y-79406546D01*
X141071575Y-79425842D01*
X141201500Y-79611395D01*
X141201505Y-79611401D01*
X141368599Y-79778495D01*
X141465384Y-79846265D01*
X141562165Y-79914032D01*
X141562167Y-79914033D01*
X141562170Y-79914035D01*
X141776337Y-80013903D01*
X142004592Y-80075063D01*
X142181034Y-80090500D01*
X142239999Y-80095659D01*
X142240000Y-80095659D01*
X142240001Y-80095659D01*
X142298966Y-80090500D01*
X142475408Y-80075063D01*
X142703663Y-80013903D01*
X142917830Y-79914035D01*
X143111401Y-79778495D01*
X143278495Y-79611401D01*
X143408425Y-79425842D01*
X143463002Y-79382217D01*
X143532500Y-79375023D01*
X143594855Y-79406546D01*
X143611575Y-79425842D01*
X143741500Y-79611395D01*
X143741505Y-79611401D01*
X143908599Y-79778495D01*
X144005384Y-79846265D01*
X144102165Y-79914032D01*
X144102167Y-79914033D01*
X144102170Y-79914035D01*
X144316337Y-80013903D01*
X144544592Y-80075063D01*
X144721034Y-80090500D01*
X144779999Y-80095659D01*
X144780000Y-80095659D01*
X144780001Y-80095659D01*
X144838966Y-80090500D01*
X145015408Y-80075063D01*
X145243663Y-80013903D01*
X145457830Y-79914035D01*
X145651401Y-79778495D01*
X145818495Y-79611401D01*
X145948425Y-79425842D01*
X146003002Y-79382217D01*
X146072500Y-79375023D01*
X146134855Y-79406546D01*
X146151575Y-79425842D01*
X146281500Y-79611395D01*
X146281505Y-79611401D01*
X146448599Y-79778495D01*
X146545384Y-79846265D01*
X146642165Y-79914032D01*
X146642167Y-79914033D01*
X146642170Y-79914035D01*
X146856337Y-80013903D01*
X147084592Y-80075063D01*
X147261034Y-80090500D01*
X147319999Y-80095659D01*
X147320000Y-80095659D01*
X147320001Y-80095659D01*
X147378966Y-80090500D01*
X147555408Y-80075063D01*
X147783663Y-80013903D01*
X147997830Y-79914035D01*
X148191401Y-79778495D01*
X148358495Y-79611401D01*
X148494035Y-79417830D01*
X148593903Y-79203663D01*
X148655063Y-78975408D01*
X148675659Y-78740000D01*
X148655063Y-78504592D01*
X148593903Y-78276337D01*
X148494035Y-78062171D01*
X148488731Y-78054595D01*
X148358494Y-77868597D01*
X148191402Y-77701506D01*
X148191396Y-77701501D01*
X148005842Y-77571575D01*
X147962217Y-77516998D01*
X147955023Y-77447500D01*
X147986546Y-77385145D01*
X148005842Y-77368425D01*
X148114515Y-77292331D01*
X148191401Y-77238495D01*
X148358495Y-77071401D01*
X148494035Y-76877830D01*
X148593903Y-76663663D01*
X148655063Y-76435408D01*
X148675659Y-76200000D01*
X148655063Y-75964592D01*
X148593903Y-75736337D01*
X148494035Y-75522171D01*
X148488731Y-75514595D01*
X148358494Y-75328597D01*
X148191402Y-75161506D01*
X148191395Y-75161501D01*
X147997834Y-75025967D01*
X147997830Y-75025965D01*
X147997828Y-75025964D01*
X147783663Y-74926097D01*
X147783659Y-74926096D01*
X147783655Y-74926094D01*
X147555413Y-74864938D01*
X147555403Y-74864936D01*
X147320001Y-74844341D01*
X147319999Y-74844341D01*
X147084596Y-74864936D01*
X147084586Y-74864938D01*
X146856344Y-74926094D01*
X146856335Y-74926098D01*
X146642171Y-75025964D01*
X146642169Y-75025965D01*
X146448597Y-75161505D01*
X146281506Y-75328596D01*
X146151575Y-75514159D01*
X146096998Y-75557784D01*
X146027500Y-75564978D01*
X145965145Y-75533455D01*
X145948425Y-75514159D01*
X145818494Y-75328597D01*
X145651402Y-75161506D01*
X145651395Y-75161501D01*
X145457834Y-75025967D01*
X145457830Y-75025965D01*
X145457828Y-75025964D01*
X145243663Y-74926097D01*
X145243659Y-74926096D01*
X145243655Y-74926094D01*
X145015413Y-74864938D01*
X145015403Y-74864936D01*
X144780001Y-74844341D01*
X144779999Y-74844341D01*
X144544596Y-74864936D01*
X144544586Y-74864938D01*
X144316344Y-74926094D01*
X144316335Y-74926098D01*
X144102171Y-75025964D01*
X144102169Y-75025965D01*
X143908597Y-75161505D01*
X143741505Y-75328597D01*
X143611575Y-75514158D01*
X143556998Y-75557783D01*
X143487500Y-75564977D01*
X143425145Y-75533454D01*
X143408425Y-75514158D01*
X143278494Y-75328597D01*
X143111402Y-75161506D01*
X143111395Y-75161501D01*
X142917834Y-75025967D01*
X142917830Y-75025965D01*
X142917828Y-75025964D01*
X142703663Y-74926097D01*
X142703659Y-74926096D01*
X142703655Y-74926094D01*
X142475413Y-74864938D01*
X142475403Y-74864936D01*
X142240001Y-74844341D01*
X142239999Y-74844341D01*
X142004596Y-74864936D01*
X142004586Y-74864938D01*
X141776344Y-74926094D01*
X141776335Y-74926098D01*
X141562171Y-75025964D01*
X141562169Y-75025965D01*
X141368597Y-75161505D01*
X141201505Y-75328597D01*
X141071575Y-75514158D01*
X141016998Y-75557783D01*
X140947500Y-75564977D01*
X140885145Y-75533454D01*
X140868425Y-75514158D01*
X140738494Y-75328597D01*
X140571402Y-75161506D01*
X140571395Y-75161501D01*
X140377834Y-75025967D01*
X140377830Y-75025965D01*
X140377828Y-75025964D01*
X140163663Y-74926097D01*
X140163659Y-74926096D01*
X140163655Y-74926094D01*
X139935413Y-74864938D01*
X139935403Y-74864936D01*
X139700001Y-74844341D01*
X139699999Y-74844341D01*
X139464596Y-74864936D01*
X139464586Y-74864938D01*
X139236344Y-74926094D01*
X139236335Y-74926098D01*
X139022171Y-75025964D01*
X139022169Y-75025965D01*
X138828597Y-75161505D01*
X138661508Y-75328594D01*
X138531269Y-75514595D01*
X138476692Y-75558219D01*
X138407193Y-75565412D01*
X138344839Y-75533890D01*
X138328119Y-75514594D01*
X138198113Y-75328926D01*
X138198108Y-75328920D01*
X138031082Y-75161894D01*
X137837578Y-75026399D01*
X137623492Y-74926570D01*
X137623486Y-74926567D01*
X137410000Y-74869364D01*
X137410000Y-75766988D01*
X137352993Y-75734075D01*
X137225826Y-75700000D01*
X137094174Y-75700000D01*
X136967007Y-75734075D01*
X136910000Y-75766988D01*
X136910000Y-74869364D01*
X136909999Y-74869364D01*
X136696513Y-74926567D01*
X136696507Y-74926570D01*
X136482422Y-75026399D01*
X136482420Y-75026400D01*
X136288926Y-75161886D01*
X136166865Y-75283947D01*
X136105542Y-75317431D01*
X136035850Y-75312447D01*
X135979917Y-75270575D01*
X135963002Y-75239598D01*
X135913797Y-75107671D01*
X135913793Y-75107664D01*
X135827547Y-74992455D01*
X135827544Y-74992452D01*
X135712335Y-74906206D01*
X135712328Y-74906202D01*
X135577482Y-74855908D01*
X135577483Y-74855908D01*
X135517883Y-74849501D01*
X135517881Y-74849500D01*
X135517873Y-74849500D01*
X135517864Y-74849500D01*
X133722129Y-74849500D01*
X133722123Y-74849501D01*
X133662516Y-74855908D01*
X133527671Y-74906202D01*
X133527664Y-74906206D01*
X133412455Y-74992452D01*
X133412452Y-74992455D01*
X133326206Y-75107664D01*
X133326202Y-75107671D01*
X133275908Y-75242517D01*
X133269501Y-75302116D01*
X133269500Y-75302135D01*
X132580500Y-75302135D01*
X132580500Y-66164000D01*
X132600185Y-66096961D01*
X132652989Y-66051206D01*
X132704500Y-66040000D01*
X149235500Y-66040000D01*
X149302539Y-66059685D01*
G37*
%TD.AperFunction*%
%TD*%
M02*
